<?xml version="1.0" encoding="utf-8"?>
<!-- Generator: Adobe Illustrator 27.7.0, SVG Export Plug-In . SVG Version: 6.00 Build 0)  -->
<svg version="1.1" id="Layer_1" xmlns="http://www.w3.org/2000/svg" xmlns:xlink="http://www.w3.org/1999/xlink" x="0px" y="0px"
	 viewBox="0 0 1024 1024" style="enable-background:new 0 0 1024 1024;" xml:space="preserve">
<style type="text/css">
	.st0{fill:#D3D5D6;}
</style>
<g>
	<g>
		<polygon class="st0" points="681.17,711.76 970.9,711.74 970.9,889.58 1262.91,889.58 1263,893.89 966.59,893.89 966.59,716.16 
			685.53,716.16 685.53,839.09 578.08,839.09 578.03,834.77 681.17,834.77 		"/>
	</g>
	<g>
		<path class="st0" d="M1251.18,891.74c0-6.43,5.14-11.7,11.82-11.7c6.39-0.02,11.53,5.27,11.53,11.7c0,6.41-5.14,11.74-11.53,11.72
			C1256.32,903.45,1251.18,898.14,1251.18,891.74z"/>
	</g>
	<g>
		<path class="st0" d="M958.46,891.76c-0.08-6.45,5.27-11.74,11.74-11.72c6.39-0.02,11.74,5.27,11.65,11.72
			c0,6.39-5.27,11.72-11.65,11.7C963.73,903.47,958.46,898.14,958.46,891.76z"/>
	</g>
	<g>
		<path class="st0" d="M569.9,836.89c0-5.25,4.23-9.5,9.54-9.46c5.27-0.04,9.5,4.21,9.5,9.52c0,5.16-4.23,9.46-9.5,9.46
			C574.13,846.41,569.9,842.11,569.9,836.89z"/>
	</g>
	<g>
		<path class="st0" d="M958.46,713.92c0-6.39,5.27-11.65,11.74-11.65c6.39,0,11.65,5.27,11.65,11.65c0,6.49-5.27,11.8-11.65,11.8
			C963.73,725.72,958.46,720.41,958.46,713.92z"/>
	</g>
	<g>
		<path class="st0" d="M670.15,713.92c0-6.39,5.27-11.65,11.73-11.7c6.51,0,11.78,5.25,11.78,11.7c0,6.49-5.27,11.78-11.78,11.78
			C675.45,725.7,670.15,720.41,670.15,713.92z"/>
	</g>
	<g>
		<path class="st0" d="M674.58,835.46c0-4.09,3.27-7.32,7.3-7.32c4.03,0,7.3,3.23,7.3,7.26c0.04,4.11-3.27,7.3-7.3,7.3
			C677.86,842.69,674.58,839.5,674.58,835.46z"/>
	</g>
</g>
<g>
	<g>
		<polygon class="st0" points="66.55,631.29 356.4,631.29 356.32,809.1 648.29,809.12 648.29,813.43 351.88,813.5 351.88,635.66 
			70.95,635.66 70.82,758.65 -36.63,758.63 -36.59,754.21 66.51,754.17 		"/>
	</g>
	<g>
		<path class="st0" d="M636.55,811.26c0-6.41,5.18-11.61,11.73-11.63c6.39,0,11.65,5.23,11.65,11.65c0,6.43-5.27,11.74-11.65,11.7
			C641.73,823.01,636.55,817.73,636.55,811.26z"/>
	</g>
	<g>
		<path class="st0" d="M343.8,811.28c0-6.43,5.35-11.63,11.74-11.65c6.43,0.02,11.73,5.27,11.73,11.65
			c0,6.43-5.31,11.74-11.73,11.74C349.15,823.01,343.8,817.71,343.8,811.28z"/>
	</g>
	<g>
		<path class="st0" d="M-44.76,756.47c0.08-5.27,4.35-9.56,9.58-9.56c5.23,0,9.5,4.29,9.5,9.54c0,5.16-4.27,9.48-9.5,9.5
			C-40.41,765.95-44.76,761.64-44.76,756.47z"/>
	</g>
	<g>
		<path class="st0" d="M343.8,633.51c0-6.55,5.35-11.7,11.74-11.7c6.43,0,11.78,5.14,11.78,11.7c-0.04,6.37-5.22,11.74-11.78,11.74
			C349.15,645.16,343.8,639.87,343.8,633.51z"/>
	</g>
	<g>
		<path class="st0" d="M55.52,633.44c0-6.47,5.27-11.63,11.74-11.63c6.47,0,11.73,5.16,11.73,11.63
			c0.04,6.45-5.27,11.72-11.73,11.72C60.79,645.16,55.56,639.89,55.52,633.44z"/>
	</g>
	<g>
		<path class="st0" d="M59.96,754.92c-0.04-4.02,3.23-7.3,7.3-7.3c4.06,0,7.3,3.28,7.3,7.22c0.08,4.19-3.32,7.4-7.3,7.32
			C63.19,762.15,59.92,759,59.96,754.92z"/>
	</g>
</g>
<g>
	<g>
		<polygon class="st0" points="490.86,502.45 780.67,502.45 780.67,680.29 1072.64,680.29 1072.64,684.75 776.32,684.75 
			776.32,506.93 495.3,506.93 495.3,629.81 387.76,629.86 387.76,625.38 490.86,625.38 		"/>
	</g>
	<g>
		<path class="st0" d="M1060.94,682.44c0-6.37,5.27-11.7,11.7-11.7c6.47,0.06,11.74,5.33,11.74,11.7c0,6.51-5.27,11.72-11.74,11.72
			C1066.21,694.16,1060.94,688.95,1060.94,682.44z"/>
	</g>
	<g>
		<path class="st0" d="M768.23,682.44c0-6.37,5.27-11.61,11.74-11.61c6.34,0,11.7,5.25,11.7,11.61c0,6.51-5.27,11.82-11.7,11.8
			C773.45,694.26,768.23,688.95,768.23,682.44z"/>
	</g>
	<g>
		<path class="st0" d="M379.67,627.68c0.08-5.29,4.23-9.58,9.58-9.58c5.19,0,9.42,4.29,9.42,9.58c0,5.16-4.23,9.43-9.42,9.43
			C383.9,637.11,379.67,632.84,379.67,627.68z"/>
	</g>
	<g>
		<path class="st0" d="M768.23,504.69c0-6.55,5.23-11.61,11.74-11.61c6.43,0,11.7,5.06,11.7,11.61c0,6.47-5.27,11.74-11.7,11.74
			C773.45,516.43,768.23,511.16,768.23,504.69z"/>
	</g>
	<g>
		<path class="st0" d="M479.95,504.69c0-6.55,5.22-11.61,11.69-11.61c6.39,0,11.7,5.14,11.78,11.61
			c-0.08,6.47-5.39,11.74-11.78,11.74C485.18,516.43,479.91,511.16,479.95,504.69z"/>
	</g>
	<g>
		<path class="st0" d="M484.31,626.19c0-4.06,3.32-7.38,7.34-7.34c4.06,0,7.34,3.28,7.34,7.34c0,4.04-3.28,7.32-7.34,7.32
			C487.62,633.44,484.31,630.23,484.31,626.19z"/>
	</g>
</g>
<g>
	<g>
		<polygon class="st0" points="1265.78,267.59 1270.17,267.55 1270.17,370.73 1393.1,370.82 1393.1,660.48 1215.35,660.48 
			1215.35,952.49 1210.95,952.49 1210.95,656.11 1388.7,656.15 1388.7,375.17 1265.78,375.21 		"/>
	</g>
	<g>
		<path class="st0" d="M1213.1,940.82c6.51,0,11.74,5.12,11.74,11.67c0,6.45-5.23,11.72-11.74,11.72c-6.34,0-11.73-5.27-11.73-11.72
			C1201.37,945.94,1206.68,940.78,1213.1,940.82z"/>
	</g>
	<g>
		<path class="st0" d="M1213.1,648.06c6.47,0,11.74,5.2,11.74,11.74c0,6.51-5.27,11.63-11.74,11.7c-6.43-0.06-11.73-5.18-11.73-11.7
			C1201.37,653.27,1206.68,648.06,1213.1,648.06z"/>
	</g>
	<g>
		<path class="st0" d="M1267.97,259.54c5.27,0.04,9.54,4.36,9.54,9.5c0,5.31-4.27,9.5-9.54,9.54c-5.14,0-9.54-4.23-9.54-9.54
			C1258.43,263.86,1262.83,259.54,1267.97,259.54z"/>
	</g>
	<g>
		<path class="st0" d="M1390.9,648.06c6.47,0,11.7,5.2,11.74,11.74c0,6.53-5.27,11.63-11.74,11.63c-6.38,0.06-11.69-5.1-11.69-11.63
			C1379.2,653.25,1384.51,648.06,1390.9,648.06z"/>
	</g>
	<g>
		<path class="st0" d="M1390.9,359.7c6.47,0,11.74,5.35,11.74,11.78c0,6.51-5.27,11.65-11.78,11.65c-6.34,0-11.65-5.14-11.65-11.65
			C1379.2,365.05,1384.51,359.79,1390.9,359.7z"/>
	</g>
	<g>
		<path class="st0" d="M1269.51,364.18c4.03,0,7.3,3.32,7.3,7.3c0,4.11-3.27,7.3-7.3,7.3c-4.14,0-7.3-3.19-7.3-7.3
			C1262.21,367.5,1265.36,364.18,1269.51,364.18z"/>
	</g>
</g>
<g>
	<g>
		<polygon class="st0" points="335.01,267.55 339.48,267.55 339.48,370.82 462.41,370.73 462.41,660.57 284.61,660.5 284.61,952.51 
			280.22,952.58 280.22,656.11 457.97,656.15 457.97,375.21 335.13,375.21 		"/>
	</g>
	<g>
		<path class="st0" d="M282.42,940.78c6.43,0.04,11.61,5.25,11.61,11.8c0,6.45-5.18,11.65-11.61,11.65
			c-6.51,0.06-11.74-5.23-11.74-11.72C270.68,946.04,275.91,940.82,282.42,940.78z"/>
	</g>
	<g>
		<path class="st0" d="M282.42,648.15c6.43,0,11.61,5.12,11.65,11.65c-0.04,6.51-5.22,11.74-11.65,11.74
			c-6.6,0-11.74-5.2-11.74-11.74C270.68,653.25,275.91,648.1,282.42,648.15z"/>
	</g>
	<g>
		<path class="st0" d="M337.2,259.54c5.35,0,9.54,4.36,9.54,9.5c0,5.31-4.19,9.54-9.45,9.54c-5.35-0.04-9.5-4.23-9.54-9.54
			C327.75,263.86,331.93,259.59,337.2,259.54z"/>
	</g>
	<g>
		<path class="st0" d="M460.21,648.15c6.39,0,11.7,5.1,11.7,11.65c0,6.53-5.31,11.74-11.7,11.74c-6.51,0-11.74-5.23-11.74-11.74
			C448.47,653.27,453.7,648.15,460.21,648.15z"/>
	</g>
	<g>
		<path class="st0" d="M460.21,359.79c6.39,0,11.7,5.27,11.7,11.7c0,6.51-5.31,11.7-11.7,11.7c-6.51,0-11.74-5.19-11.74-11.7
			C448.47,365.05,453.7,359.79,460.21,359.79z"/>
	</g>
	<g>
		<path class="st0" d="M338.7,364.18c4.06,0,7.34,3.28,7.34,7.3c0,4.14-3.27,7.3-7.38,7.3c-4.02,0-7.26-3.19-7.26-7.3
			C331.4,367.46,334.63,364.18,338.7,364.18z"/>
	</g>
</g>
<g>
	<g>
		<polygon class="st0" points="684.08,72.21 688.47,72.26 688.47,175.4 811.48,175.4 811.4,465.25 633.56,465.21 633.56,757.05 
			629.17,757.05 629.17,460.73 807.05,460.73 807.05,179.79 684.08,179.79 		"/>
	</g>
	<g>
		<path class="st0" d="M631.41,745.36c6.43,0.04,11.73,5.29,11.73,11.7c0,6.49-5.31,11.76-11.73,11.76
			c-6.55,0.06-11.7-5.23-11.7-11.76C619.71,750.64,624.86,745.4,631.41,745.36z"/>
	</g>
	<g>
		<path class="st0" d="M628.09,452.73c6.43,0,11.74,5.27,11.74,11.73c0,6.47-5.31,11.7-11.74,11.7c-6.43-0.04-11.7-5.27-11.7-11.7
			C616.39,457.91,621.66,452.68,628.09,452.73z"/>
	</g>
	<g>
		<path class="st0" d="M686.32,64.13c5.23,0,9.54,4.23,9.5,9.5c0.04,5.27-4.27,9.54-9.5,9.62c-5.31,0-9.58-4.36-9.58-9.62
			C676.74,68.36,681.01,64.13,686.32,64.13z"/>
	</g>
	<g>
		<path class="st0" d="M809.2,452.68c6.47,0,11.73,5.22,11.73,11.78c0,6.43-5.27,11.66-11.73,11.66c-6.43,0-11.65-5.23-11.65-11.66
			C797.55,457.99,802.77,452.68,809.2,452.68z"/>
	</g>
	<g>
		<path class="st0" d="M809.2,164.45c6.47,0,11.73,5.22,11.73,11.7c0,6.47-5.27,11.73-11.73,11.73c-6.43,0-11.65-5.27-11.65-11.73
			C797.55,169.59,802.77,164.45,809.2,164.45z"/>
	</g>
	<g>
		<path class="st0" d="M687.77,168.85c3.98-0.04,7.3,3.32,7.22,7.3c0.08,4.02-3.23,7.3-7.26,7.3c-4.02,0-7.3-3.28-7.3-7.3
			C680.43,172.16,683.71,168.8,687.77,168.85z"/>
	</g>
</g>
<g>
	<g>
		<polygon class="st0" points="51.87,165.2 56.27,165.2 56.27,268.38 179.15,268.38 179.19,558.05 1.36,558.09 1.36,850.08 
			-3,850.08 -3.04,553.69 174.75,553.69 174.75,272.69 51.87,272.69 		"/>
	</g>
	<g>
		<path class="st0" d="M-0.76,838.32c6.47,0,11.57,5.35,11.65,11.76c-0.12,6.41-5.27,11.67-11.65,11.7
			c-6.51,0-11.74-5.29-11.74-11.7C-12.5,843.61-7.27,838.32-0.76,838.32z"/>
	</g>
	<g>
		<path class="st0" d="M-0.8,545.73c6.43,0,11.61,5.14,11.61,11.7c0,6.39-5.18,11.65-11.61,11.65c-6.47,0-11.74-5.27-11.7-11.72
			C-12.54,550.87-7.27,545.75-0.8,545.73z"/>
	</g>
	<g>
		<path class="st0" d="M54.11,157.15c5.18,0,9.5,4.23,9.5,9.46c0,5.27-4.31,9.54-9.5,9.54c-5.27,0-9.62-4.27-9.58-9.46
			C44.49,161.38,48.93,157.15,54.11,157.15z"/>
	</g>
	<g>
		<path class="st0" d="M176.99,545.73c6.47,0,11.65,5.16,11.73,11.7c-0.08,6.32-5.27,11.74-11.73,11.65
			c-6.47,0-11.66-5.27-11.66-11.65C165.34,550.87,170.52,545.73,176.99,545.73z"/>
	</g>
	<g>
		<path class="st0" d="M176.99,257.35c6.47,0.08,11.65,5.27,11.73,11.7c-0.08,6.55-5.27,11.78-11.73,11.78
			c-6.51,0-11.66-5.22-11.66-11.78C165.34,262.66,170.52,257.35,176.99,257.35z"/>
	</g>
	<g>
		<path class="st0" d="M55.56,261.83c3.94,0,7.34,3.15,7.34,7.22s-3.4,7.34-7.34,7.34c-4.11,0.04-7.38-3.27-7.38-7.34
			S51.46,261.79,55.56,261.83z"/>
	</g>
</g>
<g>
	<g>
		<polygon class="st0" points="302.08,-159.79 306.51,-159.7 306.51,-56.6 429.48,-56.6 429.48,233.25 251.69,233.25 251.64,525.18 
			247.21,525.26 247.21,228.81 425.04,228.81 425.04,-52.12 302.08,-52.12 		"/>
	</g>
	<g>
		<path class="st0" d="M249.44,513.48c6.43-0.08,11.74,5.23,11.7,11.78c0,6.39-5.27,11.61-11.7,11.61s-11.7-5.23-11.7-11.7
			S243.02,513.4,249.44,513.48z"/>
	</g>
	<g>
		<path class="st0" d="M249.44,220.77c6.43,0,11.7,5.31,11.7,11.78s-5.27,11.7-11.7,11.7s-11.7-5.27-11.7-11.74
			C237.75,225.99,243.02,220.77,249.44,220.77z"/>
	</g>
	<g>
		<path class="st0" d="M304.27-167.66c5.35,0,9.54,4.23,9.54,9.37c0,5.31-4.19,9.62-9.54,9.62c-5.22,0-9.5-4.31-9.5-9.62
			C294.78-163.43,299.05-167.66,304.27-167.66z"/>
	</g>
	<g>
		<path class="st0" d="M427.28,220.77c6.43,0,11.7,5.31,11.7,11.78c0,6.43-5.31,11.7-11.7,11.7c-6.51,0-11.74-5.27-11.74-11.74
			C415.54,225.99,420.77,220.77,427.28,220.77z"/>
	</g>
	<g>
		<path class="st0" d="M427.32-67.55c6.34-0.04,11.65,5.22,11.65,11.7c0,6.47-5.31,11.7-11.7,11.7c-6.39,0.08-11.74-5.23-11.7-11.65
			C415.58-62.33,420.89-67.55,427.32-67.55z"/>
	</g>
	<g>
		<path class="st0" d="M305.77-63.15c4.06,0.04,7.38,3.32,7.38,7.34c0,4.06-3.32,7.34-7.38,7.38c-4.06,0-7.26-3.28-7.26-7.42
			C298.51-59.84,301.7-63.11,305.77-63.15z"/>
	</g>
</g>
<g>
	<g>
		<g>
			<polygon class="st0" points="612.79,176.81 614.7,176.89 614.7,223.34 670.27,223.43 670.27,354.31 589.98,354.31 589.98,486.19 
				587.9,486.24 587.99,352.32 668.23,352.32 668.23,225.41 612.79,225.41 			"/>
		</g>
	</g>
	<g>
		<g>
			<path class="st0" d="M588.94,480.84c2.99,0.04,5.27,2.41,5.27,5.35c0,2.9-2.28,5.27-5.27,5.27c-2.95,0.04-5.19-2.36-5.23-5.27
				C583.76,483.25,586,480.84,588.94,480.84z"/>
		</g>
	</g>
	<g>
		<g>
			<path class="st0" d="M588.94,348.71c2.99-0.04,5.27,2.28,5.27,5.27c0,2.9-2.28,5.22-5.27,5.22c-2.95,0-5.19-2.32-5.19-5.22
				C583.71,350.95,585.95,348.67,588.94,348.71z"/>
		</g>
	</g>
	<g>
		<g>
			<path class="st0" d="M613.74,173.16c2.37,0,4.31,1.99,4.31,4.31s-1.86,4.23-4.31,4.23c-2.45-0.04-4.31-1.82-4.31-4.23
				C609.43,175.15,611.46,173.16,613.74,173.16z"/>
		</g>
	</g>
	<g>
		<g>
			<path class="st0" d="M669.28,348.67c2.9,0,5.31,2.32,5.31,5.31c0,2.9-2.41,5.22-5.31,5.22c-2.9,0-5.27-2.4-5.27-5.31
				C664,350.99,666.37,348.67,669.28,348.67z"/>
		</g>
	</g>
	<g>
		<g>
			<path class="st0" d="M669.28,218.45c2.94-0.08,5.31,2.45,5.31,5.27c0,2.94-2.41,5.27-5.31,5.27c-2.9,0-5.27-2.4-5.27-5.31
				C664,220.94,666.37,218.45,669.28,218.45z"/>
		</g>
	</g>
	<g>
		<g>
			<path class="st0" d="M614.41,220.44c1.86,0,3.27,1.49,3.27,3.28c0,1.86-1.41,3.36-3.27,3.36c-1.83,0-3.32-1.49-3.32-3.4
				C611.09,221.89,612.58,220.44,614.41,220.44z"/>
		</g>
	</g>
</g>
<g>
	<g>
		<g>
			<polygon class="st0" points="213.03,283.06 211.04,283.06 211.04,236.45 155.51,236.45 155.51,105.64 235.8,105.64 235.8,-26.24 
				237.88,-26.33 237.88,107.55 157.54,107.59 157.54,234.5 213.03,234.5 			"/>
		</g>
	</g>
	<g>
		<g>
			<path class="st0" d="M236.84-21.02c-2.99,0-5.27-2.4-5.27-5.22c0-2.9,2.28-5.44,5.31-5.39c2.9,0,5.19,2.49,5.19,5.39
				C242.06-23.42,239.78-21.02,236.84-21.02z"/>
		</g>
	</g>
	<g>
		<g>
			<path class="st0" d="M236.84,111.11c-2.99,0-5.27-2.24-5.27-5.22c0-2.95,2.28-5.23,5.27-5.31c2.95,0.08,5.23,2.36,5.23,5.31
				C242.06,108.88,239.78,111.11,236.84,111.11z"/>
		</g>
	</g>
	<g>
		<g>
			<path class="st0" d="M212.04,286.63c-2.41,0.08-4.31-1.86-4.31-4.23c0-2.32,1.99-4.23,4.31-4.23c2.36,0,4.31,1.91,4.31,4.19
				C216.35,284.76,214.4,286.71,212.04,286.63z"/>
		</g>
	</g>
	<g>
		<g>
			<path class="st0" d="M156.5,111.11c-2.86,0-5.27-2.24-5.18-5.18c0-2.95,2.32-5.27,5.18-5.27c2.95-0.08,5.27,2.32,5.27,5.27
				C161.77,108.88,159.45,111.11,156.5,111.11z"/>
		</g>
	</g>
	<g>
		<g>
			<path class="st0" d="M156.5,241.47c-2.9,0-5.18-2.37-5.18-5.31c0-2.9,2.32-5.23,5.18-5.23c2.95-0.04,5.27,2.32,5.27,5.23
				C161.77,239.1,159.45,241.47,156.5,241.47z"/>
		</g>
	</g>
	<g>
		<g>
			<path class="st0" d="M211.37,239.43c-1.82,0-3.23-1.49-3.23-3.27c-0.04-1.87,1.41-3.36,3.23-3.36c1.74,0,3.32,1.49,3.32,3.32
				C214.69,237.9,213.11,239.43,211.37,239.43z"/>
		</g>
	</g>
</g>
<g>
	<g>
		<g>
			<polygon class="st0" points="1186.73,814.47 1183.66,814.47 1183.66,740.77 1095.94,740.77 1095.94,534.14 1222.77,534.14 
				1222.77,325.94 1226,325.94 1226,537.29 1099.01,537.29 1099.01,737.71 1186.73,737.71 			"/>
		</g>
	</g>
	<g>
		<g>
			<path class="st0" d="M1224.34,334.28c-4.52,0.04-8.34-3.78-8.38-8.34c0-4.73,3.86-8.37,8.38-8.37c4.6,0,8.29,3.65,8.29,8.29
				C1232.64,330.5,1228.99,334.28,1224.34,334.28z"/>
		</g>
	</g>
	<g>
		<g>
			<path class="st0" d="M1224.34,543.05c-4.52,0-8.38-3.77-8.38-8.38c0.04-4.6,3.86-8.29,8.38-8.29c4.6,0,8.29,3.69,8.29,8.34
				C1232.64,539.36,1228.95,543.05,1224.34,543.05z"/>
		</g>
	</g>
	<g>
		<g>
			<path class="st0" d="M1185.15,820.13c-3.69,0-6.63-2.92-6.63-6.64c0-3.82,2.94-6.88,6.63-6.88c3.82,0,6.8,3.07,6.8,6.88
				C1191.95,817.21,1188.88,820.13,1185.15,820.13z"/>
		</g>
	</g>
	<g>
		<g>
			<path class="st0" d="M1097.48,543.05c-4.65,0-8.38-3.69-8.38-8.34c0-4.64,3.73-8.34,8.38-8.34c4.6,0.04,8.42,3.69,8.46,8.29
				C1105.9,539.36,1102.08,542.99,1097.48,543.05z"/>
		</g>
	</g>
	<g>
		<g>
			<path class="st0" d="M1097.48,748.7c-4.65,0-8.38-3.77-8.38-8.34c0-4.67,3.73-8.38,8.38-8.38c4.6-0.06,8.42,3.71,8.42,8.38
				C1105.9,744.92,1102.08,748.68,1097.48,748.7z"/>
		</g>
	</g>
	<g>
		<g>
			<path class="st0" d="M1184.16,745.5c-2.9-0.04-5.19-2.3-5.19-5.16c0-2.88,2.41-5.25,5.19-5.25c2.99,0,5.27,2.43,5.27,5.25
				C1189.47,743.2,1187.14,745.5,1184.16,745.5z"/>
		</g>
	</g>
</g>
<g>
	<g>
		<g>
			<polygon class="st0" points="683.46,313 683.46,309.94 756.99,309.94 756.99,222.14 963.73,222.18 963.73,349 1171.92,349 
				1171.92,352.15 960.54,352.15 960.54,225.41 760.14,225.33 760.14,313 			"/>
		</g>
	</g>
	<g>
		<g>
			<path class="st0" d="M1165.2,351.66c-0.04-4.56,3.73-8.29,8.38-8.29c4.6-0.08,8.46,3.73,8.42,8.29c0,4.65-3.81,8.38-8.42,8.34
				C1168.94,359.99,1165.2,356.3,1165.2,351.66z"/>
		</g>
	</g>
	<g>
		<g>
			<path class="st0" d="M954.86,350.58c0-4.56,3.73-8.29,8.37-8.29c4.57,0,8.34,3.73,8.34,8.38c0,4.56-3.73,8.21-8.34,8.29
				C958.59,358.96,954.86,355.22,954.86,350.58z"/>
		</g>
	</g>
	<g>
		<g>
			<path class="st0" d="M677.65,311.51c0.04-3.78,3.07-6.88,6.8-6.88c3.69,0,6.76,3.11,6.76,6.88c0,3.73-3.07,6.63-6.76,6.63
				C680.72,318.15,677.65,315.25,677.65,311.51z"/>
		</g>
	</g>
	<g>
		<g>
			<path class="st0" d="M954.86,223.76c0-4.56,3.73-8.34,8.37-8.34c4.6-0.04,8.34,3.78,8.34,8.34s-3.73,8.37-8.34,8.34
				C958.59,232.09,954.86,228.32,954.86,223.76z"/>
		</g>
	</g>
	<g>
		<g>
			<path class="st0" d="M749.11,223.76c0-4.65,3.78-8.34,8.38-8.38c4.65,0,8.38,3.82,8.42,8.38c-0.04,4.56-3.77,8.37-8.42,8.37
				C752.88,232.09,749.19,228.32,749.11,223.76z"/>
		</g>
	</g>
	<g>
		<g>
			<path class="st0" d="M752.3,310.39c0-2.9,2.28-5.19,5.19-5.19c2.9,0,5.19,2.28,5.19,5.14c0,2.9-2.28,5.27-5.19,5.27
				C754.58,315.62,752.3,313.33,752.3,310.39z"/>
		</g>
	</g>
</g>
<g>
	<g>
		<g>
			<polygon class="st0" points="259.73,106.68 259.73,103.57 333.34,103.57 333.3,15.81 540,15.89 540.09,142.76 748.28,142.72 
				748.36,145.83 536.89,145.79 536.89,18.92 336.45,18.92 336.45,106.68 			"/>
		</g>
	</g>
	<g>
		<g>
			<path class="st0" d="M739.94,144.21c0-4.56,3.78-8.29,8.34-8.37c4.65,0.08,8.34,3.81,8.34,8.37c0,4.73-3.69,8.38-8.34,8.38
				C743.72,152.55,739.94,148.94,739.94,144.21z"/>
		</g>
	</g>
	<g>
		<g>
			<path class="st0" d="M531.17,144.21c0.08-4.56,3.69-8.29,8.34-8.29c4.56-0.08,8.38,3.73,8.29,8.29c0,4.73-3.73,8.34-8.29,8.34
				C534.94,152.59,531.17,148.94,531.17,144.21z"/>
		</g>
	</g>
	<g>
		<g>
			<path class="st0" d="M253.93,105.06c0-3.69,3.07-6.8,6.84-6.72c3.73,0,6.76,3.03,6.76,6.72c0,3.81-3.03,6.88-6.76,6.88
				C257,111.95,253.93,108.88,253.93,105.06z"/>
		</g>
	</g>
	<g>
		<g>
			<path class="st0" d="M531.17,17.47c0-4.73,3.69-8.38,8.34-8.38c4.56,0,8.38,3.73,8.38,8.38c0,4.56-3.82,8.29-8.38,8.29
				C534.86,25.77,531.17,22.03,531.17,17.47z"/>
		</g>
	</g>
	<g>
		<g>
			<path class="st0" d="M325.51,17.47c0-4.73,3.69-8.38,8.38-8.38c4.56-0.04,8.25,3.65,8.25,8.38c0,4.56-3.69,8.29-8.34,8.29
				C329.28,25.77,325.47,22.03,325.51,17.47z"/>
		</g>
	</g>
	<g>
		<g>
			<path class="st0" d="M328.62,104.06c0-2.9,2.4-5.27,5.18-5.27c2.9,0,5.27,2.45,5.31,5.27c-0.04,2.82-2.4,5.19-5.31,5.19
				C330.9,109.16,328.62,106.88,328.62,104.06z"/>
		</g>
	</g>
</g>
<g>
	<g>
		<g>
			<polygon class="st0" points="123.66,938.64 123.62,935.43 197.19,935.41 197.19,847.77 403.93,847.82 403.93,974.68 
				612.16,974.68 612.16,977.77 400.78,977.77 400.82,850.93 200.3,850.93 200.3,938.64 			"/>
		</g>
	</g>
	<g>
		<g>
			<path class="st0" d="M603.87,976.24c-0.04-4.69,3.69-8.4,8.29-8.42c4.6,0,8.38,3.79,8.38,8.42c0,4.58-3.78,8.38-8.38,8.38
				C607.6,984.61,603.83,980.88,603.87,976.24z"/>
		</g>
	</g>
	<g>
		<g>
			<path class="st0" d="M395.05,976.24c0-4.69,3.69-8.42,8.38-8.4c4.56-0.02,8.25,3.77,8.25,8.4c0,4.58-3.69,8.38-8.21,8.38
				C398.75,984.61,395.05,980.88,395.05,976.24z"/>
		</g>
	</g>
	<g>
		<g>
			<path class="st0" d="M117.9,937.09c0-3.71,3.02-6.84,6.8-6.78c3.69,0,6.76,3.05,6.76,6.76c0,3.71-3.07,6.74-6.76,6.74
				C120.92,943.87,117.9,940.82,117.9,937.09z"/>
		</g>
	</g>
	<g>
		<g>
			<path class="st0" d="M395.47,846.82c0-4.62,3.69-8.34,8.29-8.34c4.6-0.06,8.34,3.65,8.34,8.36c0,4.54-3.65,8.4-8.34,8.4
				C399.16,855.24,395.47,851.38,395.47,846.82z"/>
		</g>
	</g>
	<g>
		<g>
			<path class="st0" d="M189.39,849.39c0-4.65,3.73-8.36,8.29-8.36c4.64,0,8.37,3.71,8.37,8.34c0,4.58-3.73,8.38-8.37,8.36
				C193.12,857.73,189.39,853.95,189.39,849.39z"/>
		</g>
	</g>
	<g>
		<g>
			<path class="st0" d="M192.63,936.05c-0.08-2.97,2.2-5.33,5.06-5.31c2.99-0.02,5.27,2.34,5.27,5.35c0,2.74-2.28,5.14-5.27,5.1
				C194.83,941.23,192.55,938.83,192.63,936.05z"/>
		</g>
	</g>
</g>
<g>
	<g>
		<g>
			<polygon class="st0" points="1153.67,623.1 1153.67,621.71 1184.94,621.69 1184.9,584.28 1273.12,584.3 1273.12,638.36 
				1361.87,638.36 1361.87,639.66 1271.66,639.66 1271.66,585.73 1186.31,585.73 1186.31,623.05 			"/>
		</g>
	</g>
	<g>
		<g>
			<path class="st0" d="M1358.22,639.08c0-2.05,1.66-3.53,3.65-3.59c1.86,0,3.56,1.53,3.56,3.59c0,1.95-1.7,3.57-3.56,3.57
				C1359.88,642.65,1358.22,641.03,1358.22,639.08z"/>
		</g>
	</g>
	<g>
		<g>
			<path class="st0" d="M1269.22,639.08c0-2.03,1.7-3.59,3.69-3.59c1.87,0.06,3.44,1.53,3.49,3.59c-0.04,1.97-1.62,3.5-3.49,3.57
				C1270.92,642.65,1269.22,641.03,1269.22,639.08z"/>
		</g>
	</g>
	<g>
		<g>
			<path class="st0" d="M1151.23,622.39c-0.04-1.6,1.24-2.97,2.78-2.97c1.54,0,2.86,1.37,2.9,2.97c-0.04,1.56-1.37,2.84-2.9,2.84
				C1152.47,625.23,1151.19,623.95,1151.23,622.39z"/>
		</g>
	</g>
	<g>
		<g>
			<path class="st0" d="M1269.22,585.04c0-2.01,1.7-3.57,3.69-3.57c1.91,0,3.49,1.56,3.44,3.53c0,2.03-1.54,3.5-3.44,3.5
				C1270.92,588.51,1269.22,587.06,1269.22,585.04z"/>
		</g>
	</g>
	<g>
		<g>
			<path class="st0" d="M1181.58,585c0.04-1.97,1.66-3.53,3.57-3.53c1.99,0,3.65,1.56,3.65,3.57c0,1.99-1.66,3.46-3.65,3.46
				C1183.24,588.51,1181.58,587.04,1181.58,585z"/>
		</g>
	</g>
	<g>
		<g>
			<path class="st0" d="M1183.04,621.89c0-1.18,0.83-2.24,2.11-2.18c1.29,0,2.2,0.99,2.2,2.11c0.04,1.35-0.91,2.36-2.2,2.36
				S1183.04,623.18,1183.04,621.89z"/>
		</g>
	</g>
</g>
<g>
	<g>
		<g>
			<polygon class="st0" points="789.01,554.4 789.01,553.05 820.32,553.05 820.32,515.72 908.53,515.64 908.57,569.76 
				997.24,569.76 997.24,571.13 907.12,571.13 906.99,517.13 821.64,517.13 821.64,554.4 			"/>
		</g>
	</g>
	<g>
		<g>
			<path class="st0" d="M993.67,570.43c0-1.95,1.58-3.53,3.52-3.53c1.91,0,3.65,1.58,3.65,3.53c-0.08,2.05-1.74,3.57-3.65,3.57
				C995.25,573.99,993.55,572.48,993.67,570.43z"/>
		</g>
	</g>
	<g>
		<g>
			<path class="st0" d="M904.63,570.43c0-1.95,1.66-3.5,3.61-3.5s3.61,1.56,3.61,3.5c0.04,2.05-1.62,3.57-3.61,3.5
				C906.29,573.93,904.67,572.48,904.63,570.43z"/>
		</g>
	</g>
	<g>
		<g>
			<path class="st0" d="M786.52,553.82c0-1.62,1.33-2.94,2.86-2.94c1.66,0.02,2.99,1.27,2.99,2.88c0,1.56-1.33,2.8-2.99,2.84
				C787.85,556.59,786.52,555.37,786.52,553.82z"/>
		</g>
	</g>
	<g>
		<g>
			<path class="st0" d="M904.67,516.43c-0.04-2.03,1.62-3.57,3.57-3.57s3.61,1.53,3.65,3.57c0,1.95-1.7,3.48-3.65,3.48
				S904.63,518.38,904.67,516.43z"/>
		</g>
	</g>
	<g>
		<g>
			<path class="st0" d="M816.96,516.43c-0.04-2.03,1.7-3.57,3.65-3.57c1.87,0,3.61,1.53,3.61,3.57c0,1.95-1.74,3.48-3.61,3.48
				C818.66,519.91,816.92,518.38,816.96,516.43z"/>
		</g>
	</g>
	<g>
		<g>
			<path class="st0" d="M818.37,553.34c0-1.24,0.91-2.24,2.24-2.24c1.24,0,2.16,1.04,2.2,2.24c0,1.2-0.96,2.24-2.2,2.24
				C819.28,555.58,818.37,554.54,818.37,553.34z"/>
		</g>
	</g>
</g>
<g>
	<g>
		<g>
			<polygon class="st0" points="365.78,740.67 365.78,739.2 401.65,739.2 401.65,696.42 502.39,696.42 502.39,758.23 603.87,758.23 
				603.87,759.79 500.89,759.83 500.89,697.87 403.18,697.89 403.18,740.67 			"/>
		</g>
	</g>
	<g>
		<g>
			<path class="st0" d="M599.81,759c0-2.3,1.83-4.09,4.06-4.09c2.28,0,4.15,1.78,4.15,4.09c0,2.18-1.87,4.15-4.15,4.13
				C601.63,763.13,599.81,761.18,599.81,759z"/>
		</g>
	</g>
	<g>
		<g>
			<path class="st0" d="M498.03,759c0-2.3,1.83-4.17,4.11-4.17c2.24,0.08,4.02,1.85,4.02,4.19c0.08,2.16-1.74,4.11-4.02,4.11
				C499.86,763.13,498.03,761.18,498.03,759z"/>
		</g>
	</g>
	<g>
		<g>
			<path class="st0" d="M363,739.9c0-1.82,1.41-3.28,3.28-3.28c1.86,0.02,3.27,1.41,3.27,3.28c0,1.85-1.41,3.3-3.19,3.3
				C364.41,743.2,363,741.79,363,739.9z"/>
		</g>
	</g>
	<g>
		<g>
			<path class="st0" d="M498.07,697.19c-0.04-2.28,1.78-4.11,4.06-4.06c2.24-0.04,4.02,1.85,4.02,4.06c0,2.22-1.74,4.02-4.02,4.02
				C499.86,701.21,498.03,699.34,498.07,697.19z"/>
		</g>
	</g>
	<g>
		<g>
			<path class="st0" d="M397.84,697.19c0-2.28,1.86-4.11,4.02-4.11c2.32,0,4.11,1.89,4.11,4.11c0,2.22-1.78,4.02-4.15,4.02
				C399.74,701.21,397.84,699.41,397.84,697.19z"/>
		</g>
	</g>
	<g>
		<g>
			<path class="st0" d="M399.33,739.45c0-1.37,1.08-2.53,2.53-2.51c1.41-0.02,2.61,1.14,2.61,2.51c0,1.39-1.08,2.51-2.61,2.51
				C400.41,741.96,399.33,740.84,399.33,739.45z"/>
		</g>
	</g>
</g>
<g>
	<g>
		<g>
			<polygon class="st0" points="1062.6,370.57 1064.13,370.57 1064.13,405.74 1106.15,405.74 1106.15,504.77 1045.47,504.73 
				1045.47,604.41 1043.94,604.41 1043.94,503.16 1104.7,503.16 1104.7,407.31 1062.6,407.31 			"/>
		</g>
	</g>
	<g>
		<g>
			<path class="st0" d="M1044.73,600.41c2.2,0,3.94,1.87,3.94,4.02c0,2.14-1.75,3.98-3.94,3.98c-2.16,0-3.98-1.82-3.98-4
				C1040.74,602.26,1042.57,600.41,1044.73,600.41z"/>
		</g>
	</g>
	<g>
		<g>
			<path class="st0" d="M1044.73,500.54c2.24,0,3.94,1.74,3.94,3.9c0,2.32-1.75,4.06-3.94,4.06c-2.24-0.08-3.98-1.74-3.98-3.98
				C1040.74,502.33,1042.48,500.54,1044.73,500.54z"/>
		</g>
	</g>
	<g>
		<g>
			<path class="st0" d="M1063.39,367.75c1.78,0,3.32,1.58,3.32,3.24c0,1.82-1.54,3.32-3.32,3.32s-3.23-1.49-3.15-3.32
				C1060.24,369.32,1061.57,367.71,1063.39,367.75z"/>
		</g>
	</g>
	<g>
		<g>
			<path class="st0" d="M1105.36,500.54c2.2,0,3.94,1.78,3.94,3.98c0,2.16-1.74,3.9-3.94,3.98c-2.24,0-3.98-1.74-3.98-3.98
				C1101.38,502.33,1103.12,500.54,1105.36,500.54z"/>
		</g>
	</g>
	<g>
		<g>
			<path class="st0" d="M1105.36,402c2.2,0,3.94,1.83,3.94,4.06c0,2.16-1.74,3.9-3.94,3.98c-2.24,0-3.98-1.83-3.98-3.98
				C1101.38,403.83,1103.12,402,1105.36,402z"/>
		</g>
	</g>
	<g>
		<g>
			<path class="st0" d="M1063.89,403.58c1.41,0,2.57,1,2.57,2.41c0,1.37-1.16,2.53-2.49,2.53c-1.53,0-2.57-1.12-2.57-2.45
				C1061.4,404.66,1062.44,403.54,1063.89,403.58z"/>
		</g>
	</g>
</g>
<g>
	<g>
		<g>
			<polygon class="st0" points="554.73,396.36 553.19,396.45 553.19,361.15 511.18,361.11 511.18,262.24 571.98,262.2 571.98,162.5 
				573.43,162.54 573.43,263.65 512.76,263.65 512.76,359.7 554.73,359.7 			"/>
		</g>
	</g>
	<g>
		<g>
			<path class="st0" d="M572.77,166.52c-2.32,0-4.06-1.83-4.06-4.02c0-2.07,1.74-4.02,4.06-3.94c2.16,0,3.86,1.78,3.86,3.94
				C576.62,164.74,574.92,166.52,572.77,166.52z"/>
		</g>
	</g>
	<g>
		<g>
			<path class="st0" d="M572.77,266.39c-2.32,0.04-4.06-1.7-4.06-3.98c0-2.16,1.74-3.9,4.11-3.98c2.11-0.04,3.81,1.82,3.81,3.98
				C576.62,264.73,574.97,266.43,572.77,266.39z"/>
		</g>
	</g>
	<g>
		<g>
			<path class="st0" d="M553.94,399.1c-1.78,0-3.23-1.41-3.23-3.24c0-1.78,1.45-3.24,3.23-3.24c1.83-0.04,3.24,1.49,3.24,3.32
				C557.17,397.69,555.76,399.15,553.94,399.1z"/>
		</g>
	</g>
	<g>
		<g>
			<path class="st0" d="M511.97,266.43c-2.2,0-3.94-1.7-3.94-4.03c0.04-2.16,1.74-3.98,3.94-3.98c2.28,0,3.98,1.82,3.98,3.98
				C515.95,264.69,514.21,266.39,511.97,266.43z"/>
		</g>
	</g>
	<g>
		<g>
			<path class="st0" d="M511.84,364.93c-2.07,0-3.81-1.83-3.81-3.98c0-2.28,1.7-4.02,3.94-3.98c2.24-0.04,3.98,1.66,3.94,3.98
				C515.95,363.19,514.21,364.93,511.84,364.93z"/>
		</g>
	</g>
	<g>
		<g>
			<path class="st0" d="M553.48,363.35c-1.41-0.08-2.49-1.04-2.49-2.41c0-1.45,1.08-2.57,2.4-2.57c1.41,0,2.53,1.12,2.53,2.57
				C555.93,362.32,554.81,363.35,553.48,363.35z"/>
		</g>
	</g>
</g>
<g>
	<g>
		<g>
			<polygon class="st0" points="181.14,838.13 179.89,838.19 179.89,810.68 147.22,810.66 147.22,733.35 194.58,733.35 
				194.7,655.51 195.74,655.51 195.74,734.55 148.29,734.59 148.29,809.41 181.14,809.49 			"/>
		</g>
	</g>
	<g>
		<g>
			<path class="st0" d="M195.12,658.6c-1.66,0.02-3.07-1.43-3.07-3.09c0-1.76,1.33-3.15,3.07-3.15c1.74,0,3.15,1.39,3.15,3.15
				C198.27,657.21,196.86,658.6,195.12,658.6z"/>
		</g>
	</g>
	<g>
		<g>
			<path class="st0" d="M195.03,736.63c-1.58,0-2.99-1.35-2.99-3.09c0-1.66,1.41-3.07,3.07-3.11c1.74,0,3.15,1.45,3.15,3.15
				C198.27,735.26,196.82,736.63,195.03,736.63z"/>
		</g>
	</g>
	<g>
		<g>
			<path class="st0" d="M180.48,840.21c-1.33,0.06-2.45-1.08-2.53-2.49c0.08-1.35,1.2-2.51,2.53-2.51c1.49,0,2.57,1.16,2.53,2.51
				C183.01,839.09,181.89,840.27,180.48,840.21z"/>
		</g>
	</g>
	<g>
		<g>
			<path class="st0" d="M147.71,736.63c-1.7,0.02-3.07-1.37-3.07-3.09c0-1.66,1.33-3.07,3.07-3.07c1.78,0,3.11,1.37,3.11,3.07
				C150.83,735.26,149.5,736.63,147.71,736.63z"/>
		</g>
	</g>
	<g>
		<g>
			<path class="st0" d="M147.71,813.54c-1.74,0-3.07-1.37-3.07-3.17c0-1.66,1.33-3.11,3.07-3.11c1.78,0.02,3.11,1.45,3.11,3.11
				C150.83,812.21,149.5,813.6,147.71,813.54z"/>
		</g>
	</g>
	<g>
		<g>
			<path class="st0" d="M180.15,812.31c-1.08,0.02-1.99-0.77-1.99-1.95c0-1.04,0.91-1.91,1.99-1.95c1.08,0,1.99,0.91,1.99,1.99
				C182.14,811.55,181.22,812.31,180.15,812.31z"/>
		</g>
	</g>
</g>
<g>
	<g>
		<g>
			<polygon class="st0" points="786.93,884.98 785.81,884.98 785.81,857.44 752.97,857.44 752.97,780.19 800.45,780.19 
				800.41,702.31 801.61,702.27 801.61,781.38 754.21,781.36 754.21,856.28 786.93,856.21 			"/>
		</g>
	</g>
	<g>
		<g>
			<path class="st0" d="M801.03,705.42c-1.74,0.06-3.11-1.31-3.11-3.11c0-1.78,1.37-3.17,3.07-3.17c1.78,0,3.24,1.39,3.24,3.17
				C804.23,704.11,802.77,705.42,801.03,705.42z"/>
		</g>
	</g>
	<g>
		<g>
			<path class="st0" d="M801.03,783.51c-1.74,0-3.11-1.45-3.11-3.11c0-1.72,1.37-3.17,3.11-3.13c1.74,0,3.19,1.41,3.19,3.13
				C804.23,782.08,802.77,783.51,801.03,783.51z"/>
		</g>
	</g>
	<g>
		<g>
			<path class="st0" d="M786.39,887.13c-1.37,0-2.62-1.14-2.53-2.61c0-1.39,1.16-2.55,2.53-2.55c1.45,0.02,2.49,1.18,2.57,2.55
				C788.88,885.99,787.88,887.13,786.39,887.13z"/>
		</g>
	</g>
	<g>
		<g>
			<path class="st0" d="M753.63,783.45c-1.74,0-3.19-1.39-3.19-3.05c0-1.72,1.45-3.17,3.19-3.17c1.66,0.04,3.11,1.45,3.11,3.17
				C756.82,782.06,755.29,783.51,753.63,783.45z"/>
		</g>
	</g>
	<g>
		<g>
			<path class="st0" d="M753.63,860.4c-1.74,0-3.19-1.41-3.19-3.11c0-1.8,1.45-3.13,3.19-3.13c1.66,0.06,3.19,1.33,3.19,3.13
				C756.74,859.03,755.29,860.38,753.63,860.4z"/>
		</g>
	</g>
	<g>
		<g>
			<path class="st0" d="M786.02,859.24c-1.04,0-1.99-0.89-1.99-1.95c0-1.12,0.83-1.99,1.99-1.95c1.08,0,1.91,0.83,1.91,1.95
				C787.93,858.35,787.1,859.24,786.02,859.24z"/>
		</g>
	</g>
</g>
<g>
	<g>
		<g>
			<polygon class="st0" points="373.2,618.84 371.79,618.8 371.75,583.59 329.78,583.63 329.78,484.58 390.45,484.62 390.45,384.96 
				391.95,384.96 391.95,486.24 331.23,486.19 331.27,582.12 373.2,582.12 			"/>
		</g>
	</g>
	<g>
		<g>
			<path class="st0" d="M391.16,388.98c-2.16,0-3.94-1.78-3.98-4.02c0.04-2.16,1.82-4.03,3.98-4.03c2.24,0.04,4.03,1.83,4.03,4.03
				C395.18,387.2,393.4,388.98,391.16,388.98z"/>
		</g>
	</g>
	<g>
		<g>
			<path class="st0" d="M391.16,488.93c-2.16,0.04-3.94-1.74-3.94-4.02c0-2.2,1.78-3.94,3.94-3.94c2.24,0,4.03,1.78,4.03,3.94
				C395.18,487.11,393.4,488.93,391.16,488.93z"/>
		</g>
	</g>
	<g>
		<g>
			<path class="st0" d="M372.41,621.58c-1.66,0.02-3.23-1.51-3.15-3.34c0-1.78,1.49-3.19,3.19-3.19c1.78,0,3.27,1.41,3.27,3.19
				C375.73,620.07,374.19,621.58,372.41,621.58z"/>
		</g>
	</g>
	<g>
		<g>
			<path class="st0" d="M330.48,488.93c-2.16,0-3.94-1.82-3.94-4.02c0-2.2,1.83-3.94,3.94-3.94c2.28,0,4.06,1.74,4.06,3.9
				C334.55,487.11,332.76,488.93,330.48,488.93z"/>
		</g>
	</g>
	<g>
		<g>
			<path class="st0" d="M330.48,587.39c-2.16,0-3.94-1.78-3.94-4.04c0-2.26,1.78-3.96,3.94-3.96c2.28,0,4.06,1.72,4.06,4
				C334.55,585.6,332.76,587.39,330.48,587.39z"/>
		</g>
	</g>
	<g>
		<g>
			<path class="st0" d="M372,585.87c-1.41,0-2.53-1.2-2.53-2.49c0-1.37,1.12-2.51,2.53-2.51c1.41-0.06,2.45,1.12,2.45,2.51
				C374.45,584.71,373.41,585.87,372,585.87z"/>
		</g>
	</g>
</g>
<g>
	<g>
		<g>
			<polygon class="st0" points="14.05,869.34 14.05,867.81 49.22,867.81 49.22,825.83 148.21,825.83 148.21,886.57 247.99,886.57 
				247.95,888.06 146.72,888.06 146.72,827.39 50.79,827.43 50.79,869.34 			"/>
		</g>
	</g>
	<g>
		<g>
			<path class="st0" d="M243.93,887.32c0.04-2.24,1.78-3.98,4.03-4c2.15,0,3.94,1.76,3.94,4.02c0,2.18-1.78,3.98-3.94,3.98
				C245.71,891.34,243.93,889.58,243.93,887.32z"/>
		</g>
	</g>
	<g>
		<g>
			<path class="st0" d="M143.94,887.32c0.04-2.24,1.83-3.98,3.98-4c2.24,0,4.06,1.76,4.06,4.02c-0.04,2.24-1.83,3.98-4.02,4
				C145.76,891.32,143.94,889.58,143.94,887.32z"/>
		</g>
	</g>
	<g>
		<g>
			<path class="st0" d="M11.27,868.66c0-1.91,1.45-3.23,3.23-3.23s3.32,1.37,3.28,3.19c0,1.76-1.49,3.19-3.36,3.19
				C12.72,871.83,11.27,870.44,11.27,868.66z"/>
		</g>
	</g>
	<g>
		<g>
			<path class="st0" d="M143.94,826.6c0-2.16,1.83-4,3.98-4c2.24,0,4.02,1.85,4.02,4c0,2.22-1.78,3.98-4.02,4
				C145.76,830.6,143.94,828.82,143.94,826.6z"/>
		</g>
	</g>
	<g>
		<g>
			<path class="st0" d="M45.52,826.6c0-2.16,1.78-4,4.02-4c2.16-0.02,3.94,1.87,3.94,4c0,2.22-1.78,4-3.94,4
				C47.31,830.69,45.48,828.76,45.52,826.6z"/>
		</g>
	</g>
	<g>
		<g>
			<path class="st0" d="M47.06,868.03c-0.08-1.33,1.04-2.41,2.49-2.38c1.33-0.02,2.45,1.1,2.45,2.38c0,1.45-1.12,2.55-2.53,2.53
				C48.1,870.56,47.14,869.55,47.06,868.03z"/>
		</g>
	</g>
</g>
<g>
	<g>
		<polygon class="st0" points="1006.07,350.99 1010.47,350.99 1010.47,647.38 832.68,647.4 832.68,928.33 955.6,928.27 
			955.6,1035.89 951.29,1035.89 951.29,932.67 828.32,932.67 828.32,642.98 1006.07,642.98 		"/>
	</g>
	<g>
		<path class="st0" d="M1008.31,362.77c-6.47,0-11.74-5.31-11.74-11.78c0-6.43,5.27-11.65,11.74-11.65
			c6.38,0,11.69,5.22,11.69,11.65C1020.01,357.46,1014.7,362.77,1008.31,362.77z"/>
	</g>
	<g>
		<path class="st0" d="M1008.31,655.32c-6.47,0-11.74-5.16-11.74-11.63c0-6.45,5.27-11.72,11.74-11.7
			c6.38-0.02,11.69,5.25,11.69,11.74C1020.01,650.16,1014.7,655.32,1008.31,655.32z"/>
	</g>
	<g>
		<path class="st0" d="M953.4,1043.9c-5.27,0-9.5-4.21-9.5-9.48c0-5.25,4.31-9.56,9.5-9.56s9.45,4.27,9.42,9.56
			C962.82,1039.69,958.59,1043.9,953.4,1043.9z"/>
	</g>
	<g>
		<path class="st0" d="M830.48,655.32c-6.43,0-11.74-5.16-11.7-11.59c0-6.49,5.27-11.74,11.73-11.74c6.34,0,11.74,5.25,11.7,11.7
			C842.21,650.16,836.86,655.32,830.48,655.32z"/>
	</g>
	<g>
		<path class="st0" d="M830.48,943.68c-6.43-0.02-11.74-5.16-11.7-11.7c-0.04-6.49,5.27-11.65,11.7-11.65
			c6.38,0.02,11.73,5.16,11.78,11.65C842.21,938.52,836.86,943.66,830.48,943.68z"/>
	</g>
	<g>
		<path class="st0" d="M951.95,939.32c-4.06,0-7.38-3.34-7.34-7.34c0-4.13,3.27-7.32,7.34-7.32c4.06-0.02,7.3,3.19,7.3,7.32
			C959.21,935.99,956.02,939.28,951.95,939.32z"/>
	</g>
</g>
<g>
	<rect x="526.36" y="931.32" class="st0" width="299.76" height="2.18"/>
</g>
<g>
	<path class="st0" d="M513.79,932.34c0-6.97,5.64-12.55,12.57-12.59c6.97,0.04,12.61,5.62,12.61,12.59
		c-0.04,6.99-5.68,12.65-12.61,12.65C519.47,944.99,513.83,939.32,513.79,932.34z"/>
</g>
<g>
	<polygon class="st0" points="1175.4,350.66 1177.56,350.66 1177.56,488.85 1225.13,533.93 1223.56,535.55 1175.4,489.76 	"/>
</g>
<g>
	<polygon class="st0" points="427.28,229.23 463.45,229.23 463.45,366.5 461.2,366.42 461.25,231.47 427.28,231.47 	"/>
</g>
<g>
	<polygon class="st0" points="961.24,350.58 964.52,350.66 964.52,466.12 809.2,466.12 809.2,462.8 961.24,462.72 	"/>
</g>
<g>
	<polygon class="st0" points="175.29,557.36 178.65,557.42 178.65,603.6 63.03,603.6 63.03,632.7 59.75,632.7 59.75,600.41 
		175.29,600.41 	"/>
</g>
<g>
	<polygon class="st0" points="309.91,369.16 338.65,369.16 338.65,372.31 313.31,372.39 313.31,526.84 249.44,526.84 249.44,523.52 
		309.91,523.52 	"/>
</g>
<g>
	<polygon class="st0" points="755.87,310.35 759.15,310.35 759.15,413.45 627.92,413.45 627.92,464.46 624.65,464.46 624.65,410.13 
		755.87,410.13 	"/>
</g>
<g>
	<polygon class="st0" points="527.48,393.46 553.94,393.46 553.94,395.7 529.67,395.7 529.67,486.24 588.94,486.19 588.94,488.39 
		527.48,488.39 	"/>
</g>
<g>
	<polygon class="st0" points="1390.53,659.8 1392.81,659.8 1392.76,695.28 1263.95,695.28 1263.95,891.76 1261.79,891.76 
		1261.79,693.12 1390.53,693.12 	"/>
</g>
<g>
	<polygon class="st0" points="1014.53,946.23 1214.47,946.23 1214.51,948.47 1016.65,948.47 1016.65,1034.71 953.4,1034.75 
		953.4,1032.58 1014.53,1032.58 	"/>
</g>
<g>
	<polygon class="st0" points="577.74,836.89 581.1,836.89 581.1,889.08 456.4,889.08 456.4,845.16 403.48,845.16 403.48,841.82 
		459.71,841.82 459.63,885.7 577.79,885.7 	"/>
</g>
<g>
	<polygon class="st0" points="424.29,930.12 522,930.12 522,932.34 426.45,932.34 426.53,965.29 411.07,965.29 404.84,975.22 
		402.89,974 409.82,963.11 424.38,963.11 	"/>
</g>
<g>
	<polygon class="st0" points="1095.61,740.36 1097.77,740.34 1097.77,813.33 1186.73,813.33 1186.73,815.55 1095.61,815.55 	"/>
</g>
<g>
	<polygon class="st0" points="679.35,681.41 779.96,681.45 779.96,683.58 681.55,683.58 681.55,713.92 679.35,713.92 	"/>
</g>
<g>
	<polygon class="st0" points="123.24,937.09 125.4,937.06 125.4,994.57 281.3,994.57 281.3,952.51 283.41,952.58 283.41,996.74 
		123.2,996.74 	"/>
</g>
<g>
	<polygon class="st0" points="-36.26,552.63 -0.76,552.63 -0.76,554.81 -34.06,554.81 -34.06,756.49 -36.3,756.47 	"/>
</g>
<g>
	<polygon class="st0" points="259.73,103.9 262.97,103.9 262.97,136.79 251.11,136.79 251.11,232.5 247.75,232.5 247.66,133.59 
		259.73,133.59 	"/>
</g>
<g>
	<polygon class="st0" points="894.59,154.75 965.39,154.75 965.39,222.14 962.07,222.14 962.03,157.98 897.91,157.98 897.91,176.27 
		812.19,176.31 812.19,173.08 894.59,173.08 	"/>
</g>
<g>
	<g>
		<polygon class="st0" points="680.84,748.7 938.43,748.68 938.43,906.69 1197.93,906.71 1197.93,910.58 934.53,910.58 
			934.53,752.57 684.74,752.57 684.83,861.85 589.23,861.85 589.23,857.96 680.84,857.93 		"/>
	</g>
	<g>
		<path class="st0" d="M1187.56,908.64c0-5.74,4.56-10.37,10.37-10.41c5.72,0.04,10.29,4.67,10.29,10.41
			c0,5.76-4.56,10.43-10.29,10.45C1192.12,919.07,1187.6,914.38,1187.56,908.64z"/>
	</g>
	<g>
		<path class="st0" d="M927.32,908.64c0-5.68,4.73-10.37,10.45-10.41c5.72,0.04,10.37,4.73,10.45,10.41
			c-0.08,5.74-4.73,10.43-10.45,10.45C932.05,919.07,927.32,914.38,927.32,908.64z"/>
	</g>
	<g>
		<path class="st0" d="M582.1,859.9c0-4.67,3.69-8.44,8.42-8.44c4.68,0,8.46,3.77,8.46,8.44c0,4.71-3.78,8.48-8.46,8.48
			C585.79,868.39,582.1,864.61,582.1,859.9z"/>
	</g>
	<g>
		<path class="st0" d="M927.32,750.64c0-5.72,4.73-10.43,10.45-10.43c5.72,0.04,10.37,4.73,10.45,10.43
			c-0.08,5.72-4.73,10.41-10.45,10.45C932.05,761.05,927.32,756.37,927.32,750.64z"/>
	</g>
	<g>
		<path class="st0" d="M671.14,750.64c0-5.72,4.65-10.43,10.45-10.39c5.72-0.04,10.37,4.67,10.37,10.39
			c0,5.72-4.64,10.41-10.37,10.41C675.79,761.1,671.14,756.37,671.14,750.64z"/>
	</g>
	<g>
		<path class="st0" d="M675.04,858.66c0-3.63,2.9-6.57,6.55-6.49c3.52,0,6.43,2.82,6.39,6.49c0.04,3.5-2.86,6.43-6.39,6.43
			C677.94,865.05,675.04,862.23,675.04,858.66z"/>
	</g>
</g>
<g>
	<polygon class="st0" points="134.65,677.16 392.19,677.2 392.19,835.21 651.65,835.21 651.65,839.09 388.26,839.09 388.26,681.1 
		138.59,681.1 138.59,790.38 42.99,790.33 42.99,786.46 134.65,786.46 	"/>
</g>
<g>
	<path class="st0" d="M641.78,836.66c0-5.76,4.68-10.45,10.45-10.45c5.72,0.06,10.33,4.69,10.41,10.43c0,5.7-4.68,10.41-10.41,10.41
		C646.46,847.05,641.86,842.34,641.78,836.66z"/>
</g>
<g>
	<path class="st0" d="M381.08,837.16c0-5.72,4.73-10.43,10.45-10.43c5.72,0,10.41,4.71,10.41,10.43c0,5.74-4.68,10.41-10.41,10.37
		C385.81,847.57,381.08,842.9,381.08,837.16z"/>
</g>
<g>
	<path class="st0" d="M35.78,788.43c0-4.69,3.82-8.5,8.46-8.44c4.73,0,8.42,3.73,8.42,8.42c0,4.69-3.69,8.44-8.42,8.44
		C39.68,796.89,35.78,793.11,35.78,788.43z"/>
</g>
<g>
	<path class="st0" d="M381.08,679.15c0-5.72,4.73-10.39,10.45-10.39c5.72,0,10.41,4.67,10.41,10.39c0,5.74-4.68,10.43-10.41,10.37
		C385.81,689.58,381.08,684.89,381.08,679.15z"/>
</g>
<g>
	<path class="st0" d="M124.9,679.15c0-5.72,4.65-10.39,10.45-10.45c5.72,0.06,10.41,4.73,10.41,10.45c0,5.68-4.68,10.37-10.41,10.43
		C129.55,689.51,124.9,684.83,124.9,679.15z"/>
</g>
<g>
	<path class="st0" d="M128.8,787.02c0-3.57,2.9-6.39,6.6-6.39c3.48,0.04,6.51,2.88,6.51,6.43c-0.04,3.61-3.03,6.45-6.51,6.51
		C131.71,793.57,128.88,790.69,128.8,787.02z"/>
</g>
<g>
	<g>
		<polygon class="st0" points="511.8,562.73 769.35,562.79 769.35,720.81 1028.88,720.72 1028.88,724.68 765.45,724.68 
			765.45,566.69 515.7,566.63 515.7,675.91 420.11,675.89 420.11,671.91 511.8,671.89 		"/>
	</g>
	<g>
		<path class="st0" d="M1018.39,722.67c0-5.76,4.73-10.37,10.49-10.37c5.68,0.04,10.33,4.62,10.33,10.39
			c0,5.74-4.65,10.35-10.33,10.43C1023.12,733.12,1018.39,728.48,1018.39,722.67z"/>
	</g>
	<g>
		<path class="st0" d="M758.28,722.75c0-5.74,4.64-10.45,10.45-10.41c5.68-0.04,10.37,4.67,10.37,10.41
			c0.08,5.68-4.6,10.39-10.37,10.39C762.92,733.16,758.28,728.44,758.28,722.75z"/>
	</g>
	<g>
		<path class="st0" d="M412.97,673.98c0-4.69,3.78-8.5,8.5-8.5c4.6,0,8.34,3.82,8.34,8.5c0,4.58-3.73,8.36-8.34,8.36
			C416.75,682.34,413.06,678.57,412.97,673.98z"/>
	</g>
	<g>
		<path class="st0" d="M758.28,564.74c0-5.87,4.64-10.45,10.45-10.41c5.68-0.04,10.37,4.56,10.37,10.41
			c0.08,5.68-4.6,10.39-10.37,10.39C763,575.13,758.28,570.43,758.28,564.74z"/>
	</g>
	<g>
		<path class="st0" d="M502.06,564.68c0-5.81,4.64-10.35,10.41-10.39c5.72,0,10.41,4.6,10.41,10.45c0,5.72-4.65,10.39-10.41,10.39
			C506.7,575.13,502.06,570.43,502.06,564.68z"/>
	</g>
	<g>
		<path class="st0" d="M505.96,672.61c0-3.55,2.94-6.57,6.51-6.49c3.61,0,6.51,2.97,6.51,6.45c0,3.73-2.9,6.57-6.51,6.57
			C508.9,679.17,505.96,676.26,505.96,672.61z"/>
	</g>
</g>
<g>
	<g>
		<polygon class="st0" points="1200.46,353.98 1204.36,353.98 1204.36,445.72 1313.63,445.72 1313.68,703.16 1155.67,703.16 
			1155.58,962.67 1151.72,962.67 1151.72,699.24 1309.74,699.24 1309.74,449.61 1200.46,449.61 		"/>
	</g>
	<g>
		<path class="st0" d="M1153.67,952.22c5.72,0,10.41,4.67,10.41,10.45c0,5.7-4.68,10.39-10.41,10.41
			c-5.72-0.02-10.45-4.71-10.45-10.41C1143.22,956.89,1147.95,952.29,1153.67,952.22z"/>
	</g>
	<g>
		<path class="st0" d="M1153.67,692.13c5.72,0,10.41,4.65,10.41,10.45c0,5.72-4.68,10.37-10.37,10.37c-5.77,0-10.49-4.6-10.49-10.45
			C1143.22,696.77,1147.95,692.13,1153.67,692.13z"/>
	</g>
	<g>
		<path class="st0" d="M1202.41,346.85c4.68,0,8.54,3.82,8.46,8.46c0,4.69-3.78,8.46-8.46,8.46c-4.57,0-8.46-3.77-8.46-8.46
			C1193.95,350.58,1197.84,346.89,1202.41,346.85z"/>
	</g>
	<g>
		<path class="st0" d="M1311.68,692.13c5.68,0,10.41,4.65,10.41,10.45c0,5.72-4.73,10.37-10.37,10.37c-5.77,0-10.45-4.6-10.45-10.45
			C1301.28,696.77,1305.88,692.13,1311.68,692.13z"/>
	</g>
	<g>
		<path class="st0" d="M1311.68,435.85c5.68,0,10.41,4.73,10.41,10.45c0,5.77-4.73,10.37-10.41,10.37
			c-5.72,0.08-10.41-4.56-10.41-10.37C1301.23,440.57,1305.88,435.85,1311.68,435.85z"/>
	</g>
	<g>
		<path class="st0" d="M1203.77,439.87c3.57,0,6.51,2.86,6.51,6.43c0,3.65-2.94,6.55-6.51,6.55c-3.65-0.08-6.51-2.9-6.51-6.55
			C1197.26,442.73,1200.13,439.87,1203.77,439.87z"/>
	</g>
</g>
<g>
	<g>
		<polygon class="st0" points="373.41,353.98 377.18,353.98 377.18,445.72 486.5,445.72 486.5,703.16 328.45,703.2 328.45,962.67 
			324.63,962.67 324.55,699.28 482.61,699.28 482.61,449.61 373.41,449.61 		"/>
	</g>
	<g>
		<path class="st0" d="M326.54,952.29c5.72,0,10.33,4.67,10.33,10.39c0,5.7-4.6,10.39-10.33,10.39c-5.81,0-10.45-4.65-10.45-10.39
			C316.09,956.91,320.74,952.29,326.54,952.29z"/>
	</g>
	<g>
		<path class="st0" d="M326.54,692.21c5.72-0.06,10.33,4.56,10.33,10.39c0,5.7-4.6,10.41-10.33,10.39
			c-5.81,0.02-10.45-4.69-10.37-10.39C316.17,696.77,320.74,692.15,326.54,692.21z"/>
	</g>
	<g>
		<path class="st0" d="M375.32,346.85c4.65,0.04,8.42,3.82,8.42,8.46c0,4.69-3.77,8.46-8.46,8.46c-4.68,0-8.46-3.73-8.46-8.42
			C366.81,350.66,370.59,346.85,375.32,346.85z"/>
	</g>
	<g>
		<path class="st0" d="M484.51,692.21c5.72-0.06,10.45,4.56,10.45,10.39c0,5.74-4.73,10.41-10.45,10.39
			c-5.77,0-10.37-4.69-10.33-10.39C474.14,696.73,478.75,692.15,484.51,692.21z"/>
	</g>
	<g>
		<path class="st0" d="M484.51,435.85c5.81,0,10.49,4.73,10.45,10.45c0,5.81-4.73,10.45-10.45,10.45
			c-5.77-0.08-10.37-4.56-10.41-10.45C474.14,440.57,478.75,435.93,484.51,435.85z"/>
	</g>
	<g>
		<path class="st0" d="M376.52,439.87c3.69-0.04,6.55,2.86,6.55,6.43c0,3.65-2.86,6.47-6.55,6.47c-3.52,0-6.43-2.82-6.43-6.47
			C370.09,442.73,372.99,439.91,376.52,439.87z"/>
	</g>
</g>
<g>
	<g>
		<polygon class="st0" points="683.5,180.38 687.4,180.38 687.4,272.07 796.68,271.99 796.68,529.58 638.63,529.58 638.63,788.97 
			634.73,788.97 634.73,525.68 792.82,525.68 792.78,275.89 683.5,275.93 		"/>
	</g>
	<g>
		<path class="st0" d="M636.59,778.56c5.81,0,10.49,4.69,10.49,10.43c0,5.85-4.69,10.39-10.45,10.39
			c-5.76-0.02-10.33-4.58-10.33-10.41C626.27,783.24,630.87,778.56,636.59,778.56z"/>
	</g>
	<g>
		<path class="st0" d="M633.73,518.46c5.77,0,10.49,4.73,10.41,10.45c0,5.72-4.69,10.45-10.41,10.37
			c-5.64,0.08-10.37-4.64-10.37-10.37C623.36,523.19,628.01,518.46,633.73,518.46z"/>
	</g>
	<g>
		<path class="st0" d="M685.49,173.16c4.68,0,8.46,3.77,8.46,8.46c0,4.73-3.78,8.46-8.46,8.46c-4.73,0-8.46-3.73-8.46-8.46
			C677.03,176.93,680.76,173.16,685.49,173.16z"/>
	</g>
	<g>
		<path class="st0" d="M794.73,518.46c5.68,0,10.41,4.73,10.41,10.45c0,5.72-4.69,10.45-10.41,10.45
			c-5.72-0.08-10.41-4.77-10.41-10.45C784.32,523.19,789.01,518.46,794.73,518.46z"/>
	</g>
	<g>
		<path class="st0" d="M794.73,262.33c5.72,0,10.41,4.65,10.41,10.41c0,5.68-4.73,10.41-10.41,10.41c-5.72,0-10.41-4.73-10.41-10.45
			C784.32,267.05,789.01,262.33,794.73,262.33z"/>
	</g>
	<g>
		<path class="st0" d="M686.78,266.22c3.52,0,6.47,2.94,6.47,6.51c0,3.57-2.94,6.51-6.47,6.47c-3.57,0.04-6.55-2.94-6.55-6.51
			C680.22,269.17,683.21,266.22,686.78,266.22z"/>
	</g>
</g>
<g>
	<g>
		<polygon class="st0" points="121.71,262.99 125.61,262.99 125.61,354.64 234.85,354.64 234.85,612.23 76.75,612.23 76.75,871.6 
			72.85,871.6 72.85,608.17 230.91,608.17 230.95,358.54 121.71,358.54 		"/>
	</g>
	<g>
		<path class="st0" d="M74.85,861.17c5.76,0,10.41,4.69,10.37,10.37c0,5.76-4.6,10.45-10.37,10.43
			c-5.77,0.02-10.41-4.71-10.41-10.37C64.44,865.86,69.08,861.17,74.85,861.17z"/>
	</g>
	<g>
		<path class="st0" d="M74.72,601.12c5.89,0,10.49,4.67,10.49,10.41c0,5.68-4.6,10.45-10.37,10.39c-5.77,0-10.41-4.69-10.41-10.43
			C64.39,605.78,69.08,601.12,74.72,601.12z"/>
	</g>
	<g>
		<path class="st0" d="M123.62,255.77c4.6,0,8.46,3.77,8.46,8.46c0,4.73-3.86,8.46-8.46,8.5c-4.64-0.04-8.54-3.78-8.54-8.5
			C115.08,259.54,118.97,255.85,123.62,255.77z"/>
	</g>
	<g>
		<path class="st0" d="M232.81,601.14c5.77-0.02,10.41,4.64,10.41,10.39c0.04,5.7-4.68,10.39-10.41,10.39s-10.32-4.69-10.32-10.43
			C222.49,605.8,227.09,601.12,232.81,601.14z"/>
	</g>
	<g>
		<path class="st0" d="M232.81,344.9c5.72,0,10.45,4.69,10.41,10.41c0,5.72-4.64,10.45-10.45,10.45c-5.68,0-10.37-4.73-10.28-10.41
			C222.49,349.58,227.09,344.9,232.81,344.9z"/>
	</g>
	<g>
		<path class="st0" d="M124.9,348.84c3.57,0,6.55,2.82,6.55,6.51c-0.04,3.52-2.99,6.47-6.55,6.51c-3.57,0-6.47-2.99-6.47-6.51
			C118.44,351.66,121.34,348.8,124.9,348.84z"/>
	</g>
</g>
<g>
	<g>
		<polygon class="st0" points="344.05,-25.83 347.98,-25.83 347.95,65.99 457.18,65.95 457.18,323.37 299.17,323.42 299.17,582.91 
			295.27,582.93 295.36,319.56 453.33,319.48 453.33,69.81 344.05,69.89 		"/>
	</g>
	<g>
		<path class="st0" d="M297.22,572.48c5.72,0,10.41,4.71,10.41,10.45c0,5.68-4.68,10.37-10.41,10.39c-5.68,0-10.41-4.71-10.41-10.41
			C286.9,577.19,291.54,572.56,297.22,572.48z"/>
	</g>
	<g>
		<path class="st0" d="M297.31,312.43c5.6,0,10.32,4.56,10.32,10.41c0,5.68-4.68,10.41-10.41,10.41c-5.68,0-10.41-4.73-10.41-10.37
			C286.81,317.03,291.54,312.43,297.31,312.43z"/>
	</g>
	<g>
		<path class="st0" d="M346-32.88c4.64,0,8.46,3.73,8.46,8.46c0,4.65-3.82,8.46-8.46,8.46c-4.65,0-8.5-3.81-8.5-8.46
			C337.49-29.14,341.35-32.88,346-32.88z"/>
	</g>
	<g>
		<path class="st0" d="M455.23,312.38c5.72,0.12,10.45,4.6,10.45,10.45c0,5.68-4.73,10.41-10.45,10.41
			c-5.68,0-10.32-4.73-10.45-10.41C444.78,316.99,449.51,312.43,455.23,312.38z"/>
	</g>
	<g>
		<path class="st0" d="M455.23,56.12c5.72,0,10.45,4.73,10.45,10.37c-0.08,5.89-4.73,10.45-10.45,10.45
			c-5.72,0.04-10.41-4.56-10.41-10.37C444.82,60.81,449.51,56.12,455.23,56.12z"/>
	</g>
	<g>
		<path class="st0" d="M347.28,60.11c3.61,0.04,6.55,2.9,6.55,6.47c0,3.65-2.99,6.47-6.55,6.47c-3.61,0-6.47-2.82-6.47-6.55
			C340.77,63.01,343.67,60.11,347.28,60.11z"/>
	</g>
</g>
<g>
	<g>
		<g>
			<polygon class="st0" points="620.13,273.32 621.83,273.32 621.83,314.66 671.18,314.66 671.26,431.08 599.85,431.08 
				599.85,548.24 598.06,548.24 598.11,429.25 669.44,429.25 669.48,316.4 620.13,316.4 			"/>
		</g>
	</g>
	<g>
		<g>
			<path class="st0" d="M598.98,543.57c2.61-0.02,4.68,2.03,4.68,4.71c0,2.59-2.07,4.64-4.68,4.67c-2.65-0.02-4.73-2.07-4.73-4.67
				C594.25,545.6,596.32,543.55,598.98,543.57z"/>
		</g>
	</g>
	<g>
		<g>
			<path class="st0" d="M599.02,426.06c2.57,0,4.6,1.99,4.64,4.65c0,2.65-2.07,4.73-4.68,4.69c-2.7,0-4.73-2.03-4.69-4.65
				C594.21,428.05,596.28,425.98,599.02,426.06z"/>
		</g>
	</g>
	<g>
		<g>
			<path class="st0" d="M620.96,270.12c2.11-0.08,3.86,1.66,3.86,3.73c0.04,2.07-1.74,3.81-3.86,3.81
				c-2.08-0.04-3.82-1.78-3.82-3.81C617.14,271.78,618.88,270.12,620.96,270.12z"/>
		</g>
	</g>
	<g>
		<g>
			<path class="st0" d="M670.35,426.06c2.57,0,4.69,1.99,4.69,4.69c0,2.61-2.11,4.68-4.69,4.68c-2.65-0.04-4.73-2.07-4.73-4.68
				C665.62,428.05,667.7,425.98,670.35,426.06z"/>
		</g>
	</g>
	<g>
		<g>
			<path class="st0" d="M670.31,310.27c2.61,0,4.73,2.24,4.68,4.65c0.04,2.65-2.07,4.81-4.65,4.81c-2.65,0.08-4.73-2.15-4.77-4.81
				C665.62,312.51,667.7,310.27,670.31,310.27z"/>
		</g>
	</g>
	<g>
		<g>
			<path class="st0" d="M621.58,312.05c1.62,0,2.9,1.32,2.9,2.9c0,1.66-1.29,2.95-2.9,2.99c-1.62-0.04-2.94-1.32-2.94-2.99
				C618.64,313.38,619.96,312.05,621.58,312.05z"/>
		</g>
	</g>
</g>
<g>
	<g>
		<g>
			<polygon class="st0" points="264.83,367.66 263.17,367.71 263.17,326.27 213.74,326.27 213.74,209.99 285.07,209.99 
				285.07,92.87 286.94,92.87 286.94,211.73 215.52,211.77 215.52,324.53 264.92,324.53 			"/>
		</g>
	</g>
	<g>
		<g>
			<path class="st0" d="M286.02,97.51c-2.65,0.04-4.64-2.11-4.68-4.65c0.04-2.65,2.03-4.81,4.68-4.81c2.7,0,4.69,2.15,4.69,4.81
				C290.75,95.4,288.68,97.47,286.02,97.51z"/>
		</g>
	</g>
	<g>
		<g>
			<path class="st0" d="M286.02,214.96c-2.65,0-4.73-2.07-4.68-4.73c0-2.49,2.03-4.65,4.68-4.68c2.65-0.04,4.69,2.2,4.69,4.68
				C290.63,212.89,288.68,214.88,286.02,214.96z"/>
		</g>
	</g>
	<g>
		<g>
			<path class="st0" d="M264,370.98c-2.16,0-3.86-1.74-3.86-3.82c0-2.11,1.7-3.81,3.86-3.9c2.11,0,3.81,1.78,3.81,3.82
				C267.82,369.32,266.12,370.98,264,370.98z"/>
		</g>
	</g>
	<g>
		<g>
			<path class="st0" d="M214.69,214.96c-2.65,0-4.77-2.07-4.69-4.73c0-2.49,2.03-4.68,4.69-4.68c2.53,0,4.6,2.15,4.68,4.68
				C219.3,212.89,217.22,214.96,214.69,214.96z"/>
		</g>
	</g>
	<g>
		<g>
			<path class="st0" d="M214.65,330.75c-2.61-0.08-4.65-2.07-4.73-4.68c0-2.7,2.11-4.77,4.73-4.69c2.7,0,4.65,1.99,4.65,4.69
				C219.38,328.68,217.35,330.75,214.65,330.75z"/>
		</g>
	</g>
	<g>
		<g>
			<path class="st0" d="M263.38,329.01c-1.61,0-2.86-1.41-2.86-2.94c0-1.62,1.24-3.03,2.86-3.03c1.66,0,2.95,1.41,2.95,2.94
				C266.33,327.6,265.04,328.97,263.38,329.01z"/>
		</g>
	</g>
</g>
<g>
	<g>
		<g>
			<polygon class="st0" points="1130.2,840.02 1127.46,840.02 1127.46,774.55 1049.58,774.55 1049.58,590.89 1162.26,590.89 
				1162.26,405.82 1165.12,405.74 1165.12,593.67 1052.27,593.65 1052.27,771.8 1130.2,771.8 			"/>
		</g>
	</g>
	<g>
		<g>
			<path class="st0" d="M1163.59,413.2c-3.94,0-7.42-3.32-7.42-7.38c0-4.15,3.48-7.47,7.42-7.47c4.11,0,7.47,3.32,7.47,7.47
				C1171.05,409.89,1167.69,413.2,1163.59,413.2z"/>
		</g>
	</g>
	<g>
		<g>
			<path class="st0" d="M1163.59,598.85c-3.98-0.08-7.42-3.34-7.42-7.47c0-4.13,3.48-7.44,7.42-7.44c4.11,0,7.47,3.32,7.47,7.44
				C1171.05,595.52,1167.69,598.85,1163.59,598.85z"/>
		</g>
	</g>
	<g>
		<g>
			<path class="st0" d="M1128.83,845.06c-3.32,0-5.97-2.65-5.97-5.97c0.08-3.38,2.7-6.06,5.97-6.06c3.32,0,6.06,2.68,6.14,6.06
				C1134.97,842.4,1132.15,845.06,1128.83,845.06z"/>
		</g>
	</g>
	<g>
		<g>
			<path class="st0" d="M1050.91,598.85c-4.11,0-7.42-3.34-7.42-7.47c0-4.13,3.32-7.44,7.42-7.44c4.11,0,7.42,3.32,7.42,7.44
				C1058.33,595.52,1055.01,598.85,1050.91,598.85z"/>
		</g>
	</g>
	<g>
		<g>
			<path class="st0" d="M1050.91,781.52c-4.11,0-7.42-3.34-7.38-7.38c0-4.17,3.27-7.49,7.46-7.49c4.03-0.02,7.34,3.3,7.34,7.4
				C1058.33,778.18,1055.01,781.52,1050.91,781.52z"/>
		</g>
	</g>
	<g>
		<g>
			<path class="st0" d="M1127.92,778.74c-2.49,0-4.57-2.07-4.57-4.6c0-2.53,2.08-4.69,4.57-4.69c2.57,0,4.68,2.12,4.68,4.6
				C1132.61,776.67,1130.58,778.74,1127.92,778.74z"/>
		</g>
	</g>
</g>
<g>
	<g>
		<g>
			<polygon class="st0" points="682.88,394.33 682.88,391.64 748.28,391.64 748.28,313.58 932.05,313.54 932.05,426.39 
				1117.05,426.39 1117.05,429.13 929.18,429.13 929.18,316.4 751.14,316.4 751.14,394.33 			"/>
		</g>
	</g>
	<g>
		<g>
			<path class="st0" d="M1111.08,428.71c0-4.06,3.32-7.46,7.42-7.46c4.14,0,7.47,3.44,7.47,7.46c0,4.11-3.32,7.43-7.47,7.43
				C1114.4,436.14,1111.08,432.82,1111.08,428.71z"/>
		</g>
	</g>
	<g>
		<g>
			<path class="st0" d="M924.21,427.72c0-4.06,3.32-7.38,7.38-7.38c4.11,0,7.42,3.32,7.42,7.47c0,4.06-3.32,7.38-7.38,7.38
				C927.52,435.18,924.21,431.87,924.21,427.72z"/>
		</g>
	</g>
	<g>
		<g>
			<path class="st0" d="M677.78,392.96c0-3.32,2.73-6.05,6.05-6.05c3.28,0,5.98,2.73,5.98,6.05c0,3.32-2.7,5.98-5.98,5.98
				C680.51,398.94,677.78,396.28,677.78,392.96z"/>
		</g>
	</g>
	<g>
		<g>
			<path class="st0" d="M924.21,315.08c0-4.15,3.32-7.47,7.38-7.42c4.11,0,7.42,3.27,7.42,7.42c0,3.98-3.32,7.38-7.38,7.38
				C927.52,322.46,924.16,319.06,924.21,315.08z"/>
		</g>
	</g>
	<g>
		<g>
			<path class="st0" d="M741.27,315.08c0-4.15,3.32-7.47,7.55-7.47c4.06,0.04,7.38,3.32,7.42,7.47c-0.04,3.98-3.32,7.38-7.42,7.38
				C744.59,322.46,741.27,319.06,741.27,315.08z"/>
		</g>
	</g>
	<g>
		<g>
			<path class="st0" d="M744.09,392.05c0-2.57,2.07-4.65,4.6-4.73c2.61,0,4.68,2.08,4.68,4.73c0,2.49-2.07,4.6-4.68,4.6
				C746.16,396.61,744.09,394.54,744.09,392.05z"/>
		</g>
	</g>
</g>
<g>
	<g>
		<g>
			<polygon class="st0" points="306.39,210.9 306.35,208.24 371.75,208.16 371.75,130.28 555.51,130.28 555.51,243 740.48,243 
				740.57,245.65 552.65,245.7 552.69,133.1 374.61,133.02 374.61,210.94 			"/>
		</g>
	</g>
	<g>
		<g>
			<path class="st0" d="M733.18,244.32c-0.04-4.14,3.32-7.38,7.39-7.38c4.02-0.04,7.38,3.28,7.42,7.42c0,4.06-3.32,7.39-7.39,7.42
				C736.5,251.83,733.14,248.43,733.18,244.32z"/>
		</g>
	</g>
	<g>
		<g>
			<path class="st0" d="M547.55,244.32c0.04-4.06,3.36-7.38,7.43-7.42c4.1-0.04,7.46,3.36,7.46,7.42c0,4.19-3.36,7.43-7.46,7.47
				C550.99,251.79,547.63,248.47,547.55,244.32z"/>
		</g>
	</g>
	<g>
		<g>
			<path class="st0" d="M301.29,209.57c0-3.32,2.65-6.06,6.01-6.06s6.01,2.74,6.01,6.06c0,3.32-2.65,6.01-5.93,6.06
				C303.94,215.63,301.29,212.89,301.29,209.57z"/>
		</g>
	</g>
	<g>
		<g>
			<path class="st0" d="M547.59,131.69c-0.04-4.15,3.24-7.47,7.42-7.47c4.11,0,7.42,3.32,7.42,7.47c0,4.06-3.32,7.38-7.42,7.47
				C550.91,139.07,547.59,135.75,547.59,131.69z"/>
		</g>
	</g>
	<g>
		<g>
			<path class="st0" d="M364.78,131.64c0-4.11,3.32-7.42,7.39-7.42c4.1,0,7.42,3.32,7.46,7.47c-0.04,4.06-3.36,7.38-7.38,7.38
				C368.1,139.07,364.78,135.75,364.78,131.64z"/>
		</g>
	</g>
	<g>
		<g>
			<path class="st0" d="M367.52,208.62c0.08-2.45,2.16-4.68,4.73-4.64c2.57,0,4.65,2.11,4.69,4.68c-0.04,2.49-2.11,4.52-4.77,4.6
				C369.68,213.18,367.6,211.15,367.52,208.62z"/>
		</g>
	</g>
</g>
<g>
	<g>
		<g>
			<polygon class="st0" points="185.37,950.34 185.37,947.58 250.77,947.58 250.77,869.67 434.54,869.63 434.54,982.33 
				619.59,982.33 619.59,985.09 431.76,985.09 431.76,872.39 253.59,872.39 253.59,950.27 			"/>
		</g>
	</g>
	<g>
		<g>
			<path class="st0" d="M612.16,983.72c0-4.08,3.32-7.42,7.42-7.47c4.06,0.04,7.39,3.38,7.39,7.49c0,4.13-3.32,7.42-7.39,7.4
				C615.49,991.15,612.16,987.85,612.16,983.72z"/>
		</g>
	</g>
	<g>
		<g>
			<path class="st0" d="M426.66,983.72c0-4.17,3.32-7.47,7.42-7.47c4.06,0.04,7.38,3.38,7.38,7.47c0,4.13-3.32,7.42-7.38,7.42
				C429.98,991.15,426.66,987.85,426.66,983.72z"/>
		</g>
	</g>
	<g>
		<g>
			<path class="st0" d="M180.31,948.95c0-3.32,2.7-6.06,6.06-6.06c3.32,0,5.97,2.74,5.97,6.06c0,3.34-2.65,6.06-5.97,6.06
				C183.01,955,180.31,952.29,180.31,948.95z"/>
		</g>
	</g>
	<g>
		<g>
			<path class="st0" d="M426.99,868.7c-0.08-4.09,3.24-7.4,7.47-7.4c4.02-0.04,7.42,3.32,7.38,7.4c0,4.13-3.36,7.42-7.51,7.42
				C430.31,876.12,426.99,872.82,426.99,868.7z"/>
		</g>
	</g>
	<g>
		<g>
			<path class="st0" d="M243.85,871c0-4.13,3.32-7.44,7.42-7.44s7.42,3.32,7.42,7.44s-3.32,7.47-7.42,7.47S243.85,875.13,243.85,871
				z"/>
		</g>
	</g>
	<g>
		<g>
			<path class="st0" d="M246.75,948.01c-0.12-2.63,1.95-4.69,4.52-4.69c2.61,0,4.73,2.05,4.68,4.69c0,2.53-2.07,4.58-4.64,4.58
				C248.78,952.6,246.75,950.54,246.75,948.01z"/>
		</g>
	</g>
</g>
<g>
	<g>
		<g>
			<polygon class="st0" points="1100.8,669.86 1100.8,668.67 1128.58,668.7 1128.58,635.45 1206.97,635.39 1206.97,683.46 
				1285.8,683.5 1285.8,684.7 1205.72,684.7 1205.72,636.64 1129.87,636.72 1129.87,669.86 			"/>
		</g>
	</g>
	<g>
		<g>
			<path class="st0" d="M1282.61,684.1c0-1.76,1.45-3.15,3.19-3.11c1.7-0.04,3.19,1.35,3.19,3.11c0,1.76-1.49,3.15-3.19,3.11
				C1284.06,687.25,1282.61,685.86,1282.61,684.1z"/>
		</g>
	</g>
	<g>
		<g>
			<path class="st0" d="M1203.61,684.1c0-1.76,1.45-3.15,3.15-3.15c1.74,0.04,3.07,1.41,3.07,3.17c-0.04,1.74-1.33,3.09-3.07,3.13
				C1205.06,687.25,1203.61,685.86,1203.61,684.1z"/>
		</g>
	</g>
	<g>
		<g>
			<path class="st0" d="M1098.6,669.3c0-1.45,1.16-2.68,2.57-2.68c1.32,0,2.49,1.22,2.49,2.68c0,1.37-1.16,2.51-2.49,2.51
				C1099.76,671.81,1098.6,670.66,1098.6,669.3z"/>
		</g>
	</g>
	<g>
		<g>
			<path class="st0" d="M1203.57,636.08c0-1.76,1.49-3.17,3.19-3.17c1.74,0.02,3.07,1.41,3.07,3.17c-0.04,1.74-1.45,3.11-3.07,3.11
				C1205.06,639.19,1203.61,637.82,1203.57,636.08z"/>
		</g>
	</g>
	<g>
		<g>
			<path class="st0" d="M1125.64,636.08c0-1.76,1.49-3.17,3.19-3.17c1.75,0.02,3.19,1.37,3.19,3.21c0,1.7-1.53,3.07-3.19,3.07
				C1127.13,639.19,1125.68,637.82,1125.64,636.08z"/>
		</g>
	</g>
	<g>
		<g>
			<path class="st0" d="M1126.88,668.8c0.04-1.02,0.83-1.91,1.95-1.91c1.16,0.02,1.95,0.89,1.95,1.91c0,1.18-0.79,2.07-1.95,2.14
				C1127.71,670.93,1126.92,669.98,1126.88,668.8z"/>
		</g>
	</g>
</g>
<g>
	<g>
		<g>
			<polygon class="st0" points="776.73,608.87 776.73,607.73 804.56,607.73 804.56,574.43 883.03,574.43 883.03,622.49 
				961.78,622.49 961.7,623.76 881.7,623.78 881.7,575.73 805.8,575.69 805.8,608.87 			"/>
		</g>
	</g>
	<g>
		<g>
			<path class="st0" d="M958.59,623.18c0-1.8,1.45-3.21,3.19-3.21c1.7,0,3.19,1.35,3.19,3.21c0,1.72-1.49,3.13-3.19,3.13
				C960.04,626.27,958.59,624.9,958.59,623.18z"/>
		</g>
	</g>
	<g>
		<g>
			<path class="st0" d="M879.58,623.18c-0.04-1.8,1.41-3.23,3.11-3.21c1.75,0,3.24,1.41,3.24,3.21c0,1.72-1.49,3.13-3.24,3.09
				C880.99,626.27,879.54,624.92,879.58,623.18z"/>
		</g>
	</g>
	<g>
		<g>
			<path class="st0" d="M774.53,608.31c0-1.39,1.16-2.63,2.57-2.61c1.41-0.02,2.57,1.22,2.57,2.61c0,1.37-1.16,2.53-2.57,2.49
				C775.69,610.8,774.53,609.68,774.53,608.31z"/>
		</g>
	</g>
	<g>
		<g>
			<path class="st0" d="M879.58,575.13c-0.04-1.85,1.41-3.26,3.11-3.21c1.75,0,3.24,1.37,3.24,3.21c0,1.68-1.49,3.11-3.24,3.09
				C880.99,578.22,879.54,576.87,879.58,575.13z"/>
		</g>
	</g>
	<g>
		<g>
			<path class="st0" d="M801.65,575.13c-0.04-1.85,1.45-3.26,3.19-3.21c1.7,0,3.16,1.37,3.16,3.21c0,1.74-1.45,3.11-3.19,3.09
				C803.1,578.22,801.61,576.87,801.65,575.13z"/>
		</g>
	</g>
	<g>
		<g>
			<path class="st0" d="M802.86,607.96c0-1.12,0.83-2.09,1.99-2.05c1.12,0,1.91,0.93,1.91,2.05c0.04,1.02-0.79,1.95-1.95,1.95
				C803.69,609.91,802.86,609.04,802.86,607.96z"/>
		</g>
	</g>
</g>
<g>
	<g>
		<g>
			<polygon class="st0" points="400.61,774.45 400.61,773.06 432.46,773.06 432.46,735.09 522,735.09 522,790 612.25,790 
				612.25,791.39 520.76,791.39 520.76,736.44 433.87,736.44 433.87,774.45 			"/>
		</g>
	</g>
	<g>
		<g>
			<path class="st0" d="M608.64,790.69c0-2.07,1.58-3.67,3.61-3.67c1.99,0,3.61,1.62,3.61,3.67c0,1.95-1.61,3.65-3.61,3.69
				C610.21,794.34,608.64,792.64,608.64,790.69z"/>
		</g>
	</g>
	<g>
		<g>
			<path class="st0" d="M518.19,790.69c0-2.07,1.62-3.67,3.65-3.67c1.95,0,3.57,1.62,3.52,3.67c0,1.95-1.58,3.65-3.52,3.65
				C519.8,794.34,518.19,792.64,518.19,790.69z"/>
		</g>
	</g>
	<g>
		<g>
			<path class="st0" d="M398.13,773.75c0-1.62,1.29-2.94,2.94-2.99c1.7,0.04,2.95,1.37,2.95,2.99c0,1.62-1.24,2.86-2.86,2.86
				C399.41,776.61,398.13,775.36,398.13,773.75z"/>
		</g>
	</g>
	<g>
		<g>
			<path class="st0" d="M518.19,735.78c0-2.03,1.62-3.65,3.65-3.65c1.95-0.04,3.57,1.6,3.52,3.65c0,1.93-1.58,3.52-3.52,3.52
				C519.8,739.3,518.19,737.71,518.19,735.78z"/>
		</g>
	</g>
	<g>
		<g>
			<path class="st0" d="M429.11,735.78c0-2.03,1.66-3.69,3.57-3.69c2.03,0,3.69,1.64,3.69,3.69c0,1.93-1.66,3.52-3.57,3.52
				C430.76,739.28,429.11,737.71,429.11,735.78z"/>
		</g>
	</g>
	<g>
		<g>
			<path class="st0" d="M430.52,773.31c0-1.31,0.91-2.26,2.16-2.3c1.37,0,2.32,0.99,2.32,2.3c-0.08,1.24-1.04,2.26-2.32,2.3
				C431.43,775.59,430.56,774.55,430.52,773.31z"/>
		</g>
	</g>
</g>
<g>
	<g>
		<g>
			<polygon class="st0" points="1019.88,445.51 1021.25,445.51 1021.25,476.74 1058.62,476.74 1058.62,564.68 1004.66,564.74 
				1004.66,653.27 1003.34,653.27 1003.34,563.38 1057.29,563.38 1057.29,478.07 1019.88,478.15 			"/>
		</g>
	</g>
	<g>
		<g>
			<path class="st0" d="M1004,649.74c1.95,0,3.52,1.58,3.52,3.52c0,1.95-1.58,3.53-3.52,3.53c-1.91,0.06-3.57-1.58-3.52-3.55
				C1000.47,651.3,1002.09,649.74,1004,649.74z"/>
		</g>
	</g>
	<g>
		<g>
			<path class="st0" d="M1004,560.95c1.95,0,3.61,1.58,3.61,3.52c0,1.95-1.66,3.59-3.61,3.59c-1.91,0-3.52-1.64-3.52-3.59
				C1000.47,562.53,1002.09,560.95,1004,560.95z"/>
		</g>
	</g>
	<g>
		<g>
			<path class="st0" d="M1020.59,442.98c1.66,0,3.07,1.37,2.99,2.94c0,1.62-1.37,2.9-2.99,2.86c-1.62,0-2.86-1.24-2.86-2.86
				C1017.73,444.39,1018.97,442.98,1020.59,442.98z"/>
		</g>
	</g>
	<g>
		<g>
			<path class="st0" d="M1057.87,560.95c1.99,0,3.53,1.58,3.53,3.52c0,1.95-1.54,3.59-3.53,3.59c-1.91,0-3.52-1.64-3.52-3.59
				C1054.35,562.53,1055.96,560.95,1057.87,560.95z"/>
		</g>
	</g>
	<g>
		<g>
			<path class="st0" d="M1057.87,473.38c1.99,0,3.53,1.62,3.53,3.57c0,2.07-1.54,3.53-3.53,3.53c-1.91,0-3.52-1.41-3.52-3.53
				C1054.35,475,1055.96,473.38,1057.87,473.38z"/>
		</g>
	</g>
	<g>
		<g>
			<path class="st0" d="M1021.05,474.83c1.24-0.08,2.28,1,2.28,2.12c0,1.29-1.04,2.28-2.28,2.28s-2.2-1-2.11-2.28
				C1018.93,475.83,1019.8,474.75,1021.05,474.83z"/>
		</g>
	</g>
</g>
<g>
	<g>
		<g>
			<polygon class="st0" points="568.54,468.53 567.13,468.53 567.13,437.18 529.84,437.18 529.84,349.08 583.88,349.17 
				583.88,260.58 585.17,260.58 585.21,350.49 531.25,350.49 531.25,435.77 568.54,435.85 			"/>
		</g>
	</g>
	<g>
		<g>
			<path class="st0" d="M584.54,264.15c-2.03,0-3.61-1.61-3.61-3.56c0-1.91,1.66-3.52,3.61-3.52c1.91,0,3.49,1.53,3.52,3.52
				C588.07,262.53,586.45,264.15,584.54,264.15z"/>
		</g>
	</g>
	<g>
		<g>
			<path class="st0" d="M584.54,352.98c-2.07-0.08-3.61-1.58-3.61-3.56c0-1.99,1.58-3.57,3.61-3.57c1.91,0,3.44,1.58,3.44,3.48
				C588.03,351.41,586.45,352.98,584.54,352.98z"/>
		</g>
	</g>
	<g>
		<g>
			<path class="st0" d="M567.87,470.89c-1.62,0-2.9-1.24-2.9-2.86c-0.08-1.62,1.29-2.99,2.9-2.99c1.53,0,2.86,1.37,2.86,2.99
				C570.77,469.65,569.41,470.93,567.87,470.89z"/>
		</g>
	</g>
	<g>
		<g>
			<path class="st0" d="M530.55,352.9c-1.95,0-3.57-1.41-3.57-3.57c0-1.91,1.62-3.48,3.57-3.48s3.52,1.58,3.52,3.57
				C534.15,351.49,532.5,352.9,530.55,352.9z"/>
		</g>
	</g>
	<g>
		<g>
			<path class="st0" d="M530.55,440.45c-1.95,0-3.57-1.62-3.57-3.52c0-1.99,1.62-3.57,3.57-3.57s3.52,1.66,3.52,3.57
				C534.07,438.92,532.5,440.45,530.55,440.45z"/>
		</g>
	</g>
	<g>
		<g>
			<path class="st0" d="M567.37,439.08c-1.16,0.04-2.15-0.91-2.15-2.16c0-1.29,0.99-2.28,2.15-2.28c1.29-0.04,2.24,1.04,2.24,2.28
				C569.62,438.17,568.66,439.08,567.37,439.08z"/>
		</g>
	</g>
</g>
<g>
	<g>
		<g>
			<polygon class="st0" points="236.47,861.05 235.47,861.05 235.51,836.58 206.31,836.53 206.31,767.92 248.49,767.92 
				248.49,698.72 249.49,698.68 249.44,768.93 207.35,768.98 207.35,835.52 236.47,835.56 			"/>
		</g>
	</g>
	<g>
		<g>
			<path class="st0" d="M248.99,701.4c-1.54,0.08-2.78-1.18-2.7-2.68c-0.08-1.53,1.16-2.78,2.7-2.72c1.53-0.06,2.86,1.18,2.73,2.72
				C251.73,700.15,250.52,701.48,248.99,701.4z"/>
		</g>
	</g>
	<g>
		<g>
			<path class="st0" d="M248.99,770.76c-1.54,0.04-2.78-1.12-2.78-2.76c0-1.45,1.24-2.72,2.78-2.72c1.53,0,2.73,1.24,2.73,2.74
				C251.69,769.64,250.52,770.8,248.99,770.76z"/>
		</g>
	</g>
	<g>
		<g>
			<path class="st0" d="M235.93,862.87c-1.16,0-2.16-1.02-2.16-2.16c0-1.22,0.99-2.28,2.16-2.28c1.32,0.02,2.24,1,2.24,2.28
				C238.17,861.85,237.25,862.91,235.93,862.87z"/>
		</g>
	</g>
	<g>
		<g>
			<path class="st0" d="M206.85,770.8c-1.58-0.04-2.78-1.14-2.78-2.78c0.08-1.47,1.2-2.74,2.78-2.74c1.53,0,2.73,1.33,2.73,2.74
				C209.59,769.66,208.39,770.8,206.85,770.8z"/>
		</g>
	</g>
	<g>
		<g>
			<path class="st0" d="M206.81,839.21c-1.53,0-2.73-1.26-2.73-2.86c0-1.45,1.2-2.78,2.78-2.78c1.62,0.06,2.73,1.33,2.73,2.78
				C209.59,837.95,208.47,839.21,206.81,839.21z"/>
		</g>
	</g>
	<g>
		<g>
			<path class="st0" d="M235.63,838.07c-0.99,0-1.74-0.73-1.74-1.7c0-0.97,0.79-1.74,1.78-1.74c0.99,0,1.7,0.77,1.7,1.74
				C237.38,837.34,236.59,838.07,235.63,838.07z"/>
		</g>
	</g>
</g>
<g>
	<g>
		<g>
			<polygon class="st0" points="774.99,902.58 773.91,902.58 773.91,878.26 744.71,878.26 744.71,809.49 786.89,809.49 
				786.89,740.34 787.93,740.36 787.93,810.61 745.87,810.61 745.79,877.07 774.94,877.07 			"/>
		</g>
	</g>
	<g>
		<g>
			<path class="st0" d="M787.43,743.1c-1.58,0-2.78-1.27-2.78-2.76c0-1.56,1.2-2.82,2.78-2.82s2.82,1.27,2.82,2.84
				C790.25,741.83,789.01,743.1,787.43,743.1z"/>
		</g>
	</g>
	<g>
		<g>
			<path class="st0" d="M787.43,812.42c-1.58,0-2.78-1.24-2.78-2.74c0-1.47,1.2-2.74,2.78-2.74s2.82,1.22,2.82,2.78
				C790.25,811.17,789.01,812.42,787.43,812.42z"/>
		</g>
	</g>
	<g>
		<g>
			<path class="st0" d="M774.4,904.53c-1.16,0-2.28-1.06-2.28-2.26c0-1.29,1.04-2.22,2.28-2.2c1.29,0,2.24,0.91,2.24,2.16
				C776.65,903.53,775.69,904.53,774.4,904.53z"/>
		</g>
	</g>
	<g>
		<g>
			<path class="st0" d="M745.29,812.42c-1.45,0-2.78-1.24-2.82-2.74c0-1.47,1.29-2.72,2.82-2.74c1.49,0,2.74,1.22,2.74,2.74
				C748.03,811.17,746.79,812.42,745.29,812.42z"/>
		</g>
	</g>
	<g>
		<g>
			<path class="st0" d="M745.29,880.74c-1.53,0-2.82-1.18-2.78-2.76c-0.04-1.47,1.24-2.76,2.78-2.76c1.53,0,2.78,1.29,2.74,2.76
				C748.03,879.63,746.83,880.74,745.29,880.74z"/>
		</g>
	</g>
	<g>
		<g>
			<path class="st0" d="M774.07,879.71c-0.95,0-1.78-0.83-1.78-1.72c0-0.89,0.83-1.68,1.78-1.68c0.96,0,1.7,0.79,1.7,1.68
				C775.78,878.88,775.03,879.71,774.07,879.71z"/>
		</g>
	</g>
</g>
<g>
	<g>
		<g>
			<polygon class="st0" points="407.29,666.12 405.92,666.12 405.92,634.83 368.68,634.87 368.64,546.89 422.51,546.87 
				422.51,458.32 423.92,458.28 423.92,548.24 369.92,548.24 369.88,633.44 407.29,633.51 			"/>
		</g>
	</g>
	<g>
		<g>
			<path class="st0" d="M423.22,461.85c-1.95,0-3.57-1.62-3.57-3.57c0-1.91,1.62-3.52,3.57-3.52s3.61,1.62,3.52,3.57
				C426.74,460.27,425.16,461.85,423.22,461.85z"/>
		</g>
	</g>
	<g>
		<g>
			<path class="st0" d="M423.22,550.64c-1.95,0-3.57-1.6-3.57-3.53c0-1.91,1.62-3.55,3.57-3.55s3.52,1.58,3.52,3.52
				C426.74,549.03,425.16,550.64,423.22,550.64z"/>
		</g>
	</g>
	<g>
		<g>
			<path class="st0" d="M406.54,668.57c-1.49,0.02-2.86-1.33-2.86-2.94c0-1.64,1.37-2.88,2.86-2.88c1.62,0.06,2.9,1.31,2.9,2.92
				C409.45,667.2,408.16,668.59,406.54,668.57z"/>
		</g>
	</g>
	<g>
		<g>
			<path class="st0" d="M369.26,550.6c-1.95,0-3.52-1.6-3.52-3.55c0-1.93,1.58-3.5,3.44-3.5c2.15,0.02,3.69,1.6,3.69,3.55
				C372.87,549.03,371.29,550.64,369.26,550.6z"/>
		</g>
	</g>
	<g>
		<g>
			<path class="st0" d="M369.26,638.15c-1.95,0-3.52-1.62-3.52-3.57c0-2.01,1.58-3.5,3.44-3.5c2.11,0,3.77,1.49,3.69,3.55
				C372.87,636.57,371.29,638.19,369.26,638.15z"/>
		</g>
	</g>
	<g>
		<g>
			<path class="st0" d="M406.25,636.82c-1.37,0-2.4-1.06-2.4-2.2c0-1.29,0.99-2.3,2.32-2.3c1.21,0,2.16,1.08,2.16,2.34
				C408.33,635.79,407.37,636.78,406.25,636.82z"/>
		</g>
	</g>
</g>
<g>
	<g>
		<g>
			<polygon class="st0" points="88.03,888.75 88.03,887.36 119.31,887.36 119.31,850.08 207.27,850.08 207.27,904.05 295.85,904.07 
				295.85,905.34 206.03,905.34 205.9,851.42 120.72,851.47 120.72,888.75 			"/>
		</g>
	</g>
	<g>
		<g>
			<path class="st0" d="M292.33,904.8c0-2.01,1.58-3.59,3.52-3.59s3.57,1.64,3.57,3.59c0,1.91-1.62,3.5-3.57,3.53
				C293.9,908.32,292.33,906.71,292.33,904.8z"/>
		</g>
	</g>
	<g>
		<g>
			<path class="st0" d="M203.45,904.8c0-1.95,1.62-3.59,3.57-3.59c1.99,0,3.57,1.64,3.57,3.59c0,1.91-1.58,3.53-3.57,3.53
				C205.07,908.32,203.45,906.71,203.45,904.8z"/>
		</g>
	</g>
	<g>
		<g>
			<path class="st0" d="M85.51,888.06c0.08-1.62,1.37-2.86,2.94-2.86c1.58,0,2.9,1.24,2.9,2.86s-1.33,2.88-2.9,2.88
				C86.87,890.95,85.59,889.66,85.51,888.06z"/>
		</g>
	</g>
	<g>
		<g>
			<path class="st0" d="M203.45,850.78c0-1.93,1.66-3.57,3.61-3.57s3.52,1.58,3.52,3.53c0,1.93-1.58,3.57-3.57,3.57
				C205.07,854.31,203.45,852.71,203.45,850.78z"/>
		</g>
	</g>
	<g>
		<g>
			<path class="st0" d="M116.03,850.78c0-1.93,1.58-3.55,3.52-3.55s3.52,1.62,3.52,3.55s-1.58,3.53-3.52,3.53
				S116.03,852.71,116.03,850.78z"/>
		</g>
	</g>
	<g>
		<g>
			<path class="st0" d="M117.39,887.63c0-1.14,0.87-2.18,2.16-2.18c1.33,0,2.24,1,2.24,2.12c0,1.33-1.04,2.32-2.24,2.32
				C118.27,889.91,117.44,888.89,117.39,887.63z"/>
		</g>
	</g>
</g>
<g>
	<g>
		<polygon class="st0" points="969.66,428.13 973.56,428.13 973.56,691.46 815.55,691.46 815.55,941.15 924.87,941.15 
			924.83,1036.83 920.93,1036.83 920.93,945.07 811.69,945.03 811.69,687.61 969.66,687.61 		"/>
	</g>
	<g>
		<path class="st0" d="M971.69,438.5c-5.77,0-10.49-4.68-10.49-10.45c0-5.68,4.73-10.37,10.45-10.37c5.68,0,10.37,4.68,10.37,10.45
			C982.02,433.82,977.33,438.5,971.69,438.5z"/>
	</g>
	<g>
		<path class="st0" d="M971.65,698.58c-5.72,0-10.45-4.58-10.45-10.29c0-5.85,4.73-10.43,10.45-10.43c5.68,0,10.37,4.58,10.37,10.43
			C982.02,693.99,977.33,698.58,971.65,698.58z"/>
	</g>
	<g>
		<path class="st0" d="M922.96,1043.9c-4.73,0-8.59-3.82-8.59-8.5c0-4.58,3.82-8.46,8.5-8.46c4.6,0.06,8.34,3.88,8.34,8.5
			C931.21,1040.12,927.48,1043.9,922.96,1043.9z"/>
	</g>
	<g>
		<path class="st0" d="M813.6,698.58c-5.72,0-10.41-4.58-10.41-10.29c0-5.85,4.68-10.43,10.41-10.43s10.45,4.58,10.45,10.43
			C824.05,693.99,819.32,698.58,813.6,698.58z"/>
	</g>
	<g>
		<path class="st0" d="M813.6,954.9c-5.72-0.04-10.41-4.75-10.41-10.43c0-5.83,4.68-10.43,10.41-10.45
			c5.72,0.02,10.45,4.62,10.45,10.45C824.05,950.23,819.32,954.9,813.6,954.9z"/>
	</g>
	<g>
		<path class="st0" d="M921.55,950.94c-3.57,0-6.6-2.92-6.6-6.55c0-3.57,3.03-6.45,6.55-6.45c3.69,0,6.55,2.88,6.55,6.47
			C928.06,948.01,925.2,950.94,921.55,950.94z"/>
	</g>
</g>
<g>
	<rect x="543.36" y="943.79" class="st0" width="266.34" height="1.95"/>
</g>
<g>
	<path class="st0" d="M532.12,944.78c0.04-6.26,5.02-11.2,11.24-11.2c6.18,0.04,11.2,4.94,11.2,11.24c0,6.16-5.02,11.2-11.16,11.2
		C537.14,956.02,532.12,951,532.12,944.78z"/>
</g>
<g>
	<polygon class="st0" points="1120.12,427.72 1122.07,427.72 1122.07,550.64 1164.29,590.73 1162.92,592.09 1120.12,551.47 	"/>
</g>
<g>
	<polygon class="st0" points="455.23,319.81 487.38,319.89 487.46,441.82 485.51,441.82 485.47,321.8 455.23,321.76 	"/>
</g>
<g>
	<polygon class="st0" points="929.85,427.72 932.71,427.72 932.71,530.4 794.73,530.4 794.73,527.42 929.85,527.38 	"/>
</g>
<g>
	<polygon class="st0" points="231.36,611.48 234.31,611.48 234.31,652.58 131.5,652.58 131.58,678.44 128.64,678.44 128.64,649.74 
		231.36,649.74 	"/>
</g>
<g>
	<polygon class="st0" points="351.01,444.27 376.52,444.22 376.52,447.09 354.04,447.09 353.96,584.36 297.31,584.42 297.22,581.39 
		351.01,581.39 	"/>
</g>
<g>
	<polygon class="st0" points="747.32,392.05 750.23,392.05 750.23,483.58 633.56,483.58 633.56,528.91 630.66,528.91 630.66,480.6 
		747.32,480.55 	"/>
</g>
<g>
	<polygon class="st0" points="544.32,465.87 567.87,465.83 567.87,467.78 546.27,467.78 546.27,548.24 598.98,548.28 598.98,550.23 
		544.32,550.17 	"/>
</g>
<g>
	<polygon class="st0" points="1311.35,702.58 1313.26,702.58 1313.26,734.04 1198.88,734.08 1198.88,908.64 1196.89,908.64 
		1196.89,732.13 1311.35,732.09 	"/>
</g>
<g>
	<polygon class="st0" points="977.08,957.08 1154.92,957.14 1154.92,959.07 979.08,959.02 979.08,1035.79 922.88,1035.77 
		922.88,1033.82 977.08,1033.84 	"/>
</g>
<g>
	<polygon class="st0" points="589.02,859.9 591.97,859.9 591.97,906.23 481.11,906.23 481.11,867.22 434.12,867.22 434.08,864.3 
		484.02,864.22 484.02,903.26 589.02,903.26 	"/>
</g>
<g>
	<polygon class="st0" points="452.62,942.75 539.46,942.73 539.46,944.82 454.57,944.82 454.57,974 440.84,973.98 435.37,982.83 
		433.67,981.77 439.77,972.05 452.62,972.05 	"/>
</g>
<g>
	<polygon class="st0" points="1049.2,774.06 1051.11,774.06 1051.11,838.98 1130.2,838.98 1130.2,840.89 1049.2,840.89 	"/>
</g>
<g>
	<polygon class="st0" points="679.31,721.7 768.73,721.72 768.73,723.67 681.22,723.65 681.22,750.64 679.31,750.64 	"/>
</g>
<g>
	<polygon class="st0" points="185.04,948.91 186.99,948.91 186.99,1000.04 325.51,1000.04 325.51,962.67 327.42,962.67 
		327.42,1001.99 185.04,1001.99 	"/>
</g>
<g>
	<polygon class="st0" points="43.37,607.27 74.85,607.27 74.85,609.22 45.28,609.22 45.23,788.41 43.28,788.41 	"/>
</g>
<g>
	<polygon class="st0" points="306.35,208.54 309.25,208.54 309.25,237.69 298.75,237.69 298.63,322.83 295.73,322.83 295.73,234.87 
		306.39,234.87 	"/>
</g>
<g>
	<polygon class="st0" points="870.58,253.7 933.58,253.7 933.49,313.54 930.55,313.54 930.55,256.56 873.57,256.6 873.57,272.86 
		797.34,272.82 797.34,270 870.58,270 	"/>
</g>
<rect x="305.31" y="764.21" class="st0" width="38.7" height="38.65"/>
<rect x="325.38" y="0.8" class="st0" width="38.65" height="38.65"/>
<rect x="689.64" y="921.64" class="st0" width="38.65" height="38.67"/>
<rect x="951.5" y="553.69" class="st0" width="38.65" height="38.69"/>
<rect x="463.9" y="499.38" class="st0" width="38.65" height="38.65"/>
<rect x="797.13" y="817.93" class="st0" width="38.65" height="38.65"/>
<rect x="57.47" y="594.56" class="st0" width="38.65" height="38.67"/>
<rect x="473.11" y="818.16" class="st0" width="38.65" height="38.67"/>
<polygon class="st0" points="1186.81,385 1186.81,423.74 1148.16,423.65 1148.16,385 "/>
<rect x="441.34" y="210.32" class="st0" width="38.65" height="38.74"/>
<rect x="667.16" y="217.45" class="st0" width="38.69" height="38.65"/>
<polygon class="st0" points="250.61,437.09 250.52,475.74 211.95,475.74 211.95,437.09 "/>
<rect x="751.06" y="617.39" class="st0" width="33.14" height="33.2"/>
<rect x="116.69" y="762.92" class="st0" width="38.65" height="38.67"/>
<rect x="615.85" y="643.31" class="st0" width="38.7" height="38.67"/>
<rect x="167.25" y="927.86" class="st0" width="38.65" height="38.69"/>
<rect x="775.73" y="402.96" class="st0" width="38.69" height="38.65"/>
<rect x="1039.33" y="888.06" class="st0" width="38.7" height="38.65"/>
<g>
	<path class="st0" d="M249.36,544.67c0,10.45-8.5,18.93-18.83,18.89c-10.49,0-18.87-8.44-18.87-18.89
		c0-10.37,8.37-18.83,18.87-18.83C240.86,525.93,249.36,534.3,249.36,544.67z M214.15,544.71c0,9.04,7.3,16.34,16.38,16.34
		c9,0.02,16.3-7.3,16.3-16.34s-7.3-16.3-16.3-16.38C221.49,528.41,214.15,535.71,214.15,544.71z"/>
</g>
<g>
	<path class="st0" d="M153.85,679.6c0,10.37-8.42,18.87-18.87,18.87c-10.33,0.02-18.79-8.5-18.79-18.87
		c0-10.43,8.46-18.81,18.79-18.83C145.43,660.77,153.85,669.17,153.85,679.6z M118.68,679.58c0,9.02,7.34,16.36,16.3,16.36
		c9.04-0.02,16.38-7.34,16.38-16.34c0-8.96-7.38-16.34-16.29-16.28C126.02,663.26,118.68,670.6,118.68,679.58z"/>
</g>
<g>
	<path class="st0" d="M93.43,870.92c0,10.37-8.38,18.87-18.79,18.87c-10.41,0.02-18.87-8.5-18.87-18.87
		c0-10.43,8.46-18.83,18.87-18.85C85.05,852.07,93.43,860.49,93.43,870.92z M58.26,870.92c0,9,7.38,16.34,16.38,16.34
		c8.96,0,16.3-7.32,16.3-16.38c0-8.94-7.34-16.32-16.3-16.32C65.6,854.62,58.26,861.94,58.26,870.92z"/>
</g>
<g>
	<path class="st0" d="M63.94,788.8c-0.08,10.37-8.46,18.87-18.87,18.87c-10.33,0-18.91-8.5-18.83-18.87
		c-0.08-10.39,8.5-18.83,18.83-18.83C55.48,769.97,63.86,778.41,63.94,788.8z M28.77,788.8c-0.08,9,7.3,16.4,16.3,16.4
		c9-0.08,16.3-7.4,16.3-16.44c0.04-8.94-7.3-16.28-16.3-16.24C36.07,772.5,28.77,779.82,28.77,788.8z"/>
</g>
<g>
	<path class="st0" d="M144.48,354.39c-0.04,10.37-8.5,18.83-18.87,18.83c-10.37,0.04-18.87-8.46-18.83-18.83
		c0-10.45,8.46-18.83,18.83-18.87C135.97,335.52,144.48,343.95,144.48,354.39z M109.27,354.39c-0.04,9,7.34,16.34,16.34,16.34
		c8.96,0,16.3-7.34,16.3-16.42c0.04-8.92-7.34-16.3-16.3-16.3C116.61,338.05,109.27,345.39,109.27,354.39z"/>
</g>
<g>
	<path class="st0" d="M304.31,93.16c-0.04,10.41-8.54,18.87-18.87,18.87c-10.41,0-18.87-8.46-18.79-18.87
		c-0.08-10.45,8.38-18.87,18.79-18.87C295.77,74.29,304.27,82.71,304.31,93.16z M269.1,93.12c0,9.08,7.3,16.38,16.3,16.34
		c9.04,0.04,16.34-7.26,16.34-16.34c0-8.96-7.3-16.26-16.3-16.26C276.4,76.86,269.1,84.16,269.1,93.12z"/>
</g>
<g>
	<path class="st0" d="M392.15,130.65c0,10.41-8.42,18.91-18.91,18.87c-10.37,0.04-18.79-8.46-18.79-18.87
		c0-10.37,8.42-18.79,18.79-18.83C383.73,111.86,392.15,120.28,392.15,130.65z M356.98,130.73c0,8.92,7.34,16.26,16.38,16.3
		c8.91,0,16.26-7.3,16.26-16.38c0-8.96-7.34-16.3-16.26-16.3C364.2,114.35,356.9,121.69,356.98,130.73z"/>
</g>
<g>
	<path class="st0" d="M390.33,207.58c0,10.37-8.42,18.83-18.91,18.83c-10.33,0.04-18.79-8.46-18.79-18.83
		c0.04-10.41,8.46-18.83,18.79-18.83C381.91,188.75,390.37,197.17,390.33,207.58z M355.12,207.58c0,9,7.34,16.34,16.3,16.34
		c9,0,16.34-7.34,16.38-16.34c0-8.96-7.34-16.3-16.3-16.3C362.46,191.28,355.12,198.62,355.12,207.58z"/>
</g>
<g>
	<path class="st0" d="M534.03,735.69c-0.04,7.4-5.97,13.44-13.36,13.44c-7.42-0.06-13.39-6.03-13.39-13.4
		c0.08-7.4,5.97-13.35,13.36-13.35C528.06,722.42,534.03,728.33,534.03,735.69z M509.11,735.74c0,6.37,5.18,11.59,11.57,11.59
		s11.61-5.16,11.61-11.63c0-6.35-5.27-11.53-11.65-11.53C514.25,724.16,509.11,729.33,509.11,735.74z"/>
</g>
<g>
	<path class="st0" d="M437.07,548.07c-0.08,7.4-6.01,13.4-13.48,13.38c-7.3,0-13.36-6.03-13.31-13.35c0-7.4,5.93-13.37,13.36-13.33
		C430.97,534.76,436.98,540.69,437.07,548.07z M412.06,548.09c0,6.37,5.19,11.61,11.57,11.59c6.39,0,11.61-5.18,11.61-11.61
		c0-6.3-5.22-11.61-11.65-11.53C417.24,536.54,412.06,541.73,412.06,548.09z"/>
</g>
<g>
	<path class="st0" d="M382.08,634.11c0,7.42-5.98,13.4-13.4,13.37c-7.34,0.06-13.27-5.95-13.31-13.37c0-7.36,5.97-13.31,13.31-13.35
		C376.1,620.79,382.08,626.75,382.08,634.11z M357.15,634.11c0.04,6.43,5.19,11.61,11.57,11.61c6.39,0.04,11.57-5.18,11.53-11.61
		c0.04-6.35-5.1-11.51-11.57-11.57C362.33,622.6,357.15,627.78,357.15,634.11z"/>
</g>
<g>
	<path class="st0" d="M277.73,365.92c0,7.39-5.93,13.4-13.31,13.36c-7.39,0-13.4-6.01-13.4-13.36c0-7.38,5.98-13.35,13.4-13.35
		C271.71,352.57,277.73,358.5,277.73,365.92z M252.76,365.92c0,6.39,5.31,11.62,11.66,11.62c6.34,0,11.53-5.23,11.57-11.62
		c0-6.34-5.22-11.61-11.57-11.53C258.03,354.39,252.76,359.54,252.76,365.92z"/>
</g>
<g>
	<path class="st0" d="M263.01,768.66c0.04,7.36-5.93,13.4-13.27,13.4c-7.34,0-13.4-6.03-13.4-13.4c0-7.34,6.06-13.33,13.4-13.33
		C257.08,755.33,263.17,761.28,263.01,768.66z M238.12,768.66c0,6.43,5.23,11.61,11.62,11.61c6.34,0,11.57-5.18,11.57-11.59
		c0-6.37-5.22-11.57-11.57-11.57C243.35,757.11,238.12,762.32,238.12,768.66z"/>
</g>
<g>
	<path class="st0" d="M233.48,212.77c0,10.41-8.46,18.87-18.83,18.87c-10.41,0-18.87-8.46-18.87-18.87
		c-0.04-10.41,8.46-18.83,18.92-18.79C225.02,193.94,233.48,202.4,233.48,212.77z M198.31,212.77c0,9.04,7.34,16.38,16.38,16.38
		c9,0,16.29-7.34,16.29-16.38c0-9-7.3-16.3-16.34-16.3C205.69,196.47,198.39,203.8,198.31,212.77z"/>
</g>
<g>
	<path class="st0" d="M619.18,431.2c-0.04,10.37-8.46,18.92-18.91,18.92c-10.33-0.08-18.79-8.54-18.79-19
		c0-10.29,8.46-18.79,18.79-18.75C610.72,412.37,619.13,420.83,619.18,431.2z M583.97,431.2c0,9.04,7.34,16.34,16.3,16.34
		c9.04,0,16.38-7.3,16.38-16.42c0-8.96-7.26-16.26-16.38-16.26C591.3,414.86,583.97,422.16,583.97,431.2z"/>
</g>
<g>
	<path class="st0" d="M549.58,349.42c0,10.45-8.42,18.91-18.87,18.87c-10.45,0.04-18.87-8.42-18.87-18.87
		c0-10.37,8.42-18.75,18.87-18.83C541.17,330.67,549.58,339.05,549.58,349.42z M514.42,349.5c0,8.96,7.3,16.3,16.34,16.34
		c9,0,16.34-7.34,16.34-16.42c0-8.96-7.34-16.26-16.34-16.26C521.71,333.16,514.42,340.46,514.42,349.5z"/>
</g>
<g>
	<path class="st0" d="M270.02,872.22c-0.04,10.39-8.46,18.89-18.91,18.89c-10.37-0.06-18.87-8.5-18.79-18.89
		c-0.08-10.39,8.42-18.85,18.79-18.83C261.56,853.39,269.97,861.83,270.02,872.22z M234.85,872.22c0,9.06,7.26,16.38,16.26,16.38
		c9-0.06,16.3-7.36,16.38-16.38c0-8.98-7.34-16.32-16.38-16.32C242.11,855.9,234.85,863.24,234.85,872.22z"/>
</g>
<g>
	<path class="st0" d="M812.44,339.55c0,10.45-8.46,18.87-18.83,18.87c-10.45,0-18.87-8.42-18.87-18.87
		c-0.04-10.45,8.42-18.83,18.87-18.83C803.98,320.72,812.44,329.09,812.44,339.55z M777.27,339.55c0,9.04,7.34,16.34,16.34,16.34
		c9.04,0,16.34-7.3,16.34-16.34c0-8.96-7.3-16.34-16.34-16.34C784.61,323.21,777.27,330.59,777.27,339.55z"/>
</g>
<g>
	<path class="st0" d="M637.63,984.82c0,10.45-8.46,18.91-18.87,18.91c-10.41,0.04-18.83-8.46-18.83-18.91
		c0-10.35,8.42-18.75,18.83-18.77C629.17,966.05,637.63,974.47,637.63,984.82z M602.46,984.82c0,9.08,7.34,16.4,16.3,16.4
		c9.04,0,16.38-7.32,16.38-16.4c0-8.98-7.34-16.3-16.38-16.3C609.8,968.52,602.46,975.84,602.46,984.82z"/>
</g>
<g>
	<path class="st0" d="M941.5,943.66c0,10.41-8.46,18.89-18.87,18.89c-10.33,0-18.79-8.48-18.79-18.89
		c0.04-10.39,8.46-18.81,18.79-18.81C933.04,924.85,941.58,933.27,941.5,943.66z M906.33,943.66c0,9.04,7.34,16.36,16.3,16.36
		c9.04,0,16.38-7.32,16.38-16.36c0-8.96-7.34-16.3-16.38-16.3C913.67,927.36,906.33,934.7,906.33,943.66z"/>
</g>
<g>
	<path class="st0" d="M1071.48,775.26c0,10.43-8.46,18.89-18.83,18.89c-10.41-0.06-18.83-8.5-18.83-18.89
		c0-10.45,8.42-18.87,18.83-18.81C1063.01,756.45,1071.48,764.81,1071.48,775.26z M1036.31,775.26c0,9.04,7.34,16.34,16.34,16.34
		c9.04,0.04,16.34-7.28,16.34-16.34c0-9-7.3-16.32-16.34-16.32C1043.65,758.94,1036.31,766.26,1036.31,775.26z"/>
</g>
<g>
	<path class="st0" d="M1071.56,593.09c-0.08,10.39-8.54,18.85-18.91,18.87c-10.41,0-18.83-8.48-18.83-18.87
		c0-10.37,8.42-18.81,18.83-18.81C1063.01,574.24,1071.48,582.72,1071.56,593.09z M1036.31,593.09c0,9.06,7.34,16.38,16.34,16.38
		c9.04-0.04,16.34-7.38,16.34-16.36c0.04-9.02-7.26-16.32-16.34-16.32C1043.65,576.79,1036.31,584.09,1036.31,593.09z"/>
</g>
<g>
	<path class="st0" d="M951.58,367c0,10.45-8.46,18.87-18.87,18.87c-10.41-0.04-18.79-8.42-18.79-18.87s8.38-18.83,18.79-18.83
		C943.12,348.18,951.58,356.55,951.58,367z M916.41,367c0,9.04,7.34,16.38,16.3,16.38c9.04,0,16.38-7.34,16.38-16.38
		c0-8.96-7.34-16.3-16.38-16.3C923.75,350.7,916.41,358.04,916.41,367z"/>
</g>
<g>
	<path class="st0" d="M954.23,829.73c0,10.35-8.5,18.85-18.87,18.85c-10.41,0-18.83-8.5-18.83-18.85c0-10.45,8.42-18.85,18.83-18.85
		C945.73,810.88,954.23,819.28,954.23,829.73z M919.06,829.69c0,9.08,7.3,16.38,16.3,16.38c9-0.04,16.34-7.36,16.34-16.34
		c0-8.98-7.34-16.3-16.34-16.32C926.36,813.41,919.06,820.71,919.06,829.69z"/>
</g>
<g>
	<path class="st0" d="M1171.18,962.47c0,10.35-8.46,18.85-18.83,18.85c-10.45,0-18.87-8.5-18.87-18.85
		c0-10.45,8.42-18.87,18.87-18.87C1162.72,943.6,1171.18,952.02,1171.18,962.47z M1135.96,962.47c0,8.98,7.34,16.28,16.3,16.28
		c9.04,0.08,16.38-7.24,16.38-16.3c0-9-7.34-16.32-16.38-16.3C1143.31,946.15,1135.96,953.47,1135.96,962.47z"/>
</g>
<g>
	<path class="st0" d="M1182.17,591.7c0,10.45-8.5,18.89-18.87,18.89c-10.41,0-18.87-8.44-18.87-18.89
		c0-10.39,8.46-18.81,18.87-18.81C1173.66,572.89,1182.17,581.31,1182.17,591.7z M1146.96,591.7c0,9.02,7.34,16.34,16.34,16.34
		c9.04,0.06,16.34-7.28,16.34-16.34c0-8.96-7.3-16.28-16.34-16.28C1154.3,575.42,1146.96,582.74,1146.96,591.7z"/>
</g>
<g>
	<path class="st0" d="M1135.51,428.75c0,10.45-8.54,18.91-18.91,18.91c-10.37,0-18.83-8.46-18.83-18.91
		c0-10.41,8.46-18.79,18.83-18.79C1126.97,409.97,1135.51,418.34,1135.51,428.75z M1100.26,428.8c0,9.04,7.34,16.34,16.34,16.34
		c9.04,0,16.34-7.3,16.34-16.38c0-9-7.3-16.3-16.34-16.26C1107.6,412.5,1100.26,419.84,1100.26,428.8z"/>
</g>
<g>
	<path class="st0" d="M1224.22,446.22c0.13,10.37-8.42,18.83-18.83,18.83c-10.41,0-18.79-8.46-18.83-18.83
		c0-10.45,8.42-18.87,18.83-18.87C1215.8,427.39,1224.22,435.77,1224.22,446.22z M1189.05,446.13c0,9.04,7.34,16.42,16.34,16.42
		c9.04-0.08,16.34-7.38,16.34-16.34c0-9-7.3-16.34-16.34-16.34C1196.39,429.88,1189.05,437.18,1189.05,446.13z"/>
</g>
<g>
	<path class="st0" d="M1171.51,702.74c0,10.45-8.46,18.89-18.87,18.89c-10.33,0-18.87-8.44-18.87-18.89
		c0-10.41,8.54-18.81,18.87-18.81C1163.05,683.94,1171.51,692.33,1171.51,702.74z M1136.34,702.74c0,9.02,7.3,16.34,16.3,16.34
		c9.04,0.06,16.38-7.26,16.38-16.34c0-8.98-7.34-16.28-16.38-16.28C1143.64,686.47,1136.34,693.77,1136.34,702.74z"/>
</g>
<g>
	<path class="st0" d="M1216.63,909.05c0.08,10.43-8.46,18.91-18.83,18.87c-10.45,0-18.83-8.44-18.87-18.87
		c0-10.41,8.42-18.85,18.87-18.81C1208.17,890.24,1216.63,898.64,1216.63,909.05z M1181.46,909.05c0,9.04,7.34,16.36,16.34,16.36
		c9.04,0.04,16.34-7.3,16.34-16.36c0-8.98-7.3-16.3-16.34-16.3C1188.8,892.75,1181.46,900.07,1181.46,909.05z"/>
</g>
<g>
	<path class="st0" d="M1331.34,702.74c0,10.45-8.46,18.89-18.91,18.89c-10.37,0-18.79-8.44-18.79-18.89
		c0-10.41,8.42-18.81,18.79-18.81C1322.88,683.94,1331.34,692.33,1331.34,702.74z M1296.18,702.74c0,9.08,7.34,16.4,16.26,16.4
		c9.04,0,16.38-7.32,16.38-16.4c0-8.98-7.34-16.28-16.38-16.28C1303.51,686.47,1296.18,693.77,1296.18,702.74z"/>
</g>
<g>
	<path class="st0" d="M1330.14,446.42c0,10.45-8.46,18.92-18.87,18.92c-10.41,0.04-18.83-8.46-18.83-18.92
		c0-10.32,8.42-18.78,18.83-18.78C1321.68,427.64,1330.14,436.1,1330.14,446.42z M1294.97,446.42c0,9.08,7.34,16.38,16.29,16.38
		c9.04,0,16.34-7.3,16.34-16.38c0-8.91-7.3-16.26-16.34-16.26C1302.31,430.16,1294.97,437.51,1294.97,446.42z"/>
</g>
<g>
	<path class="st0" d="M1221.53,353.73c0,10.45-8.46,18.91-18.91,18.91c-10.33,0-18.79-8.54-18.79-18.91
		c0-10.37,8.46-18.83,18.79-18.83C1213.06,334.9,1221.53,343.36,1221.53,353.73z M1186.31,353.73c0,9,7.34,16.34,16.3,16.34
		c9.04,0.08,16.38-7.3,16.38-16.34c0-8.96-7.34-16.3-16.38-16.3C1193.65,337.43,1186.31,344.77,1186.31,353.73z"/>
</g>
<g>
	<path class="st0" d="M956.68,750.31c0,10.45-8.46,18.89-18.87,18.89c-10.45,0.04-18.79-8.44-18.79-18.89
		c0-10.35,8.34-18.75,18.79-18.81C948.22,731.51,956.68,739.97,956.68,750.31z M921.55,750.35c-0.04,9.02,7.26,16.36,16.26,16.36
		c9.04,0,16.38-7.34,16.38-16.4c0-8.96-7.34-16.28-16.34-16.24C928.89,734.08,921.55,741.4,921.55,750.35z"/>
</g>
<g>
	<path class="st0" d="M143.19,264.07c0.12,10.37-8.42,18.83-18.83,18.83s-18.79-8.46-18.83-18.83c0-10.45,8.42-18.87,18.83-18.87
		C134.77,245.24,143.19,253.62,143.19,264.07z M108.02,263.98c0,9.04,7.34,16.43,16.34,16.43c9.08,0,16.38-7.39,16.34-16.34
		c0-9.04-7.3-16.34-16.34-16.38C115.36,247.69,108.02,255.03,108.02,263.98z"/>
</g>
<g>
	<path class="st0" d="M473.69,64.46c-0.08,10.41-8.5,18.87-18.87,18.91c-10.45-0.04-18.92-8.5-18.87-18.91
		c0-10.41,8.42-18.83,18.87-18.79C465.19,45.63,473.69,54.05,473.69,64.46z M438.48,64.46c-0.04,9.04,7.34,16.38,16.21,16.38
		c9.16,0,16.42-7.34,16.42-16.42c0-8.88-7.26-16.26-16.29-16.21C445.82,48.2,438.48,55.54,438.48,64.46z"/>
</g>
<g>
	<path class="st0" d="M474.6,320.8c0,10.37-8.46,18.91-18.91,18.83c-10.37,0-18.79-8.46-18.79-18.83c0-10.45,8.42-18.87,18.79-18.87
		C466.14,301.97,474.6,310.35,474.6,320.8z M439.39,320.8c0,9,7.34,16.34,16.3,16.34c9.08,0,16.42-7.34,16.38-16.34
		c0-9-7.34-16.34-16.38-16.34C446.73,304.46,439.39,311.76,439.39,320.8z"/>
</g>
<g>
	<path class="st0" d="M393.11,447.96c0,10.49-8.37,18.95-18.91,18.91c-10.37,0-18.79-8.42-18.79-18.91
		c0-10.37,8.42-18.79,18.79-18.79C384.73,429.21,393.11,437.59,393.11,447.96z M357.94,448.04c0,9.04,7.26,16.34,16.3,16.34
		s16.38-7.34,16.42-16.34c-0.04-9.04-7.34-16.34-16.42-16.34C365.2,431.66,357.86,439,357.94,448.04z"/>
</g>
<g>
	<path class="st0" d="M316.22,582.62c0,10.35-8.42,18.85-18.83,18.85c-10.49-0.04-18.87-8.5-18.79-18.91
		c-0.12-10.43,8.3-18.85,18.79-18.81C307.8,563.75,316.17,572.13,316.22,582.62z M281.05,582.54c0,9.06,7.38,16.42,16.29,16.38
		c9.04,0,16.38-7.32,16.38-16.36c0-8.94-7.34-16.3-16.38-16.34C288.43,566.26,281.09,573.58,281.05,582.54z"/>
</g>
<g>
	<path class="st0" d="M653.06,527.67c0,10.45-8.46,18.87-18.87,18.87c-10.41,0-18.79-8.42-18.79-18.87
		c-0.04-10.45,8.38-18.83,18.79-18.83C644.6,508.84,653.06,517.22,653.06,527.67z M617.89,527.67c0,9.04,7.34,16.36,16.3,16.36
		c9.04,0,16.38-7.32,16.38-16.36c0-9-7.34-16.34-16.38-16.34C625.23,511.33,617.89,518.67,617.89,527.67z"/>
</g>
<g>
	<path class="st0" d="M785.81,565.16c0,10.41-8.46,18.91-18.87,18.85c-10.45,0.06-18.87-8.44-18.91-18.85
		c0.04-10.37,8.46-18.79,18.91-18.83C777.35,546.37,785.81,554.79,785.81,565.16z M750.64,565.14c0,9.06,7.3,16.38,16.3,16.38
		c9.04,0,16.38-7.32,16.38-16.36c0-8.96-7.34-16.3-16.38-16.32C757.94,548.84,750.64,556.16,750.64,565.14z"/>
</g>
<g>
	<path class="st0" d="M345.75,962.45c0,10.43-8.38,18.83-18.83,18.87c-10.45,0-18.87-8.5-18.87-18.87
		c0-10.43,8.42-18.91,18.87-18.91C337.37,943.58,345.75,952.02,345.75,962.45z M310.54,962.47c0,8.98,7.34,16.28,16.38,16.36
		c9,0,16.3-7.32,16.3-16.38c0-9.04-7.3-16.38-16.34-16.38C317.87,946.06,310.54,953.41,310.54,962.47z"/>
</g>
<g>
	<path class="st0" d="M409.82,837.03c0,10.43-8.46,18.87-18.79,18.87c-10.49,0-18.91-8.44-18.91-18.87
		c0-10.43,8.42-18.91,18.83-18.87C401.4,818.16,409.82,826.6,409.82,837.03z M374.65,837.05c0,8.98,7.34,16.32,16.38,16.34
		c8.96,0,16.3-7.32,16.3-16.36c0.04-9.04-7.3-16.38-16.38-16.38C381.99,820.65,374.65,827.99,374.65,837.05z"/>
</g>
<g>
	<path class="st0" d="M671.06,836.64c0,10.41-8.5,18.85-18.87,18.85c-10.45,0-18.87-8.44-18.87-18.85
		c-0.04-10.43,8.42-18.87,18.87-18.91C662.56,817.77,670.97,826.21,671.06,836.64z M635.84,836.64c0,9.04,7.34,16.36,16.34,16.36
		c9.04,0,16.34-7.32,16.34-16.36c0-9.04-7.3-16.36-16.3-16.36S635.93,827.6,635.84,836.64z"/>
</g>
<g>
	<path class="st0" d="M701.79,751c0,10.43-8.46,18.87-18.87,18.87c-10.37,0-18.78-8.44-18.78-18.87c0-10.43,8.42-18.87,18.78-18.91
		C693.33,732.13,701.79,740.57,701.79,751z M666.62,751c0,9.04,7.34,16.36,16.29,16.36c9.04,0,16.38-7.32,16.38-16.36
		s-7.34-16.38-16.38-16.4C673.96,734.59,666.62,741.92,666.62,751z"/>
</g>
</svg>
