<?xml version="1.0" encoding="UTF-8"?><svg id="Layer_2" xmlns="http://www.w3.org/2000/svg" viewBox="0 0 172.63 93.5"><defs><style>.cls-1{stroke-linecap:round;stroke-width:16px;}.cls-1,.cls-2,.cls-3{stroke-miterlimit:10;}.cls-1,.cls-3{fill:none;stroke:#000;}.cls-2{stroke:#fff;stroke-width:4px;}.cls-3{stroke-width:13px;}.cls-4,.cls-5{stroke-width:0px;}.cls-5{fill:#fff;}</style></defs><g id="Layer_1-2"><path class="cls-4" d="M139.63,92.5c-4.42,0-8-3.58-8-8v-43.05c0-4.42,3.58-8,8-8s8,3.58,8,8v43.05c0,4.42-3.58,8-8,8Z"/><line class="cls-1" x1="105.63" y1="84.5" x2="105.63" y2="42.5"/><ellipse class="cls-3" cx="47.88" cy="46" rx="36.25" ry="39.5"/><line class="cls-1" x1="12.63" y1="43.5" x2="141.63" y2="42.5"/><path class="cls-5" d="M117.66,43.13c0-6.64-5.39-12.03-12.03-12.03s-12.03,5.39-12.03,12.03,5.39,12.03,12.03,12.03,12.03-5.39,12.03-12.03Z"/><path class="cls-4" d="M119.26,43.13c0,7.52-6.12,13.63-13.63,13.63s-13.63-6.12-13.63-13.63,6.12-13.63,13.63-13.63,13.63,6.12,13.63,13.63,0-7.52,0,0ZM95.2,43.13c0,5.75,4.68,10.43,10.43,10.43s10.43-4.68,10.43-10.43-4.68-10.43-10.43-10.43-10.43,4.68-10.43,10.43,0-5.75,0,0Z"/><line class="cls-1" x1="139.63" y1="84.5" x2="139.63" y2="42.5"/><path class="cls-5" d="M151.66,43.13c0-6.64-5.39-12.03-12.03-12.03s-12.03,5.39-12.03,12.03,5.39,12.03,12.03,12.03,12.03-5.39,12.03-12.03Z"/><path class="cls-4" d="M153.26,43.13c0,7.52-6.12,13.63-13.63,13.63s-13.63-6.12-13.63-13.63,6.12-13.63,13.63-13.63,13.63,6.12,13.63,13.63,0-7.52,0,0ZM129.2,43.13c0,5.75,4.68,10.43,10.43,10.43s10.43-4.68,10.43-10.43-4.68-10.43-10.43-10.43-10.43,4.68-10.43,10.43,0-5.75,0,0Z"/><path class="cls-5" d="M25.66,43.13c0-6.64-5.39-12.03-12.03-12.03S1.6,36.49,1.6,43.13s5.39,12.03,12.03,12.03,12.03-5.39,12.03-12.03Z"/><path class="cls-4" d="M27.26,43.13c0,7.52-6.12,13.63-13.63,13.63S0,50.65,0,43.13s6.12-13.63,13.63-13.63,13.63,6.12,13.63,13.63,0-7.52,0,0ZM3.2,43.13c0,5.75,4.68,10.43,10.43,10.43s10.43-4.68,10.43-10.43-4.68-10.43-10.43-10.43-10.43,4.68-10.43,10.43,0-5.75,0,0Z"/><circle class="cls-2" cx="157.13" cy="78" r="13.5"/></g></svg>